<mxfile host="drawio-plugin" agent="Mozilla/5.0 (X11; Linux x86_64) AppleWebKit/537.36 (KHTML, like Gecko) Chrome/122.0.0.0 Safari/537.36" modified="2025-06-04T17:41:48.264Z" version="23.1.5" etag="vgKuCn-g6gP7rUNJzx0W" type="embed">
  <diagram name="Page-1" id="OI3MDUrh8x5qwaem05h8">
    <mxGraphModel dx="756" dy="552" grid="1" gridSize="10" guides="1" tooltips="1" connect="1" arrows="1" fold="1" page="1" pageScale="1" pageWidth="850" pageHeight="1100" math="0" shadow="0">
      <root>
        <mxCell id="0" />
        <mxCell id="1" parent="0" />
        <mxCell id="GyxzSY54GK3ofzCGlce7-46" value="Trade datalake scope" style="verticalLabelPosition=top;verticalAlign=bottom;html=1;shape=mxgraph.basic.rect;fillColor2=none;strokeWidth=1;size=20;indent=5;fillColor=none;align=right;labelPosition=center;fontSize=12;" parent="1" vertex="1">
          <mxGeometry x="52.87" y="220" width="767.13" height="900" as="geometry" />
        </mxCell>
        <mxCell id="GyxzSY54GK3ofzCGlce7-21" style="edgeStyle=orthogonalEdgeStyle;rounded=0;orthogonalLoop=1;jettySize=auto;html=1;" parent="1" source="GyxzSY54GK3ofzCGlce7-1" target="GyxzSY54GK3ofzCGlce7-20" edge="1">
          <mxGeometry relative="1" as="geometry" />
        </mxCell>
        <mxCell id="GyxzSY54GK3ofzCGlce7-57" style="edgeStyle=orthogonalEdgeStyle;rounded=0;orthogonalLoop=1;jettySize=auto;html=1;" parent="1" source="GyxzSY54GK3ofzCGlce7-28" target="GyxzSY54GK3ofzCGlce7-8" edge="1">
          <mxGeometry relative="1" as="geometry" />
        </mxCell>
        <mxCell id="GyxzSY54GK3ofzCGlce7-28" value="Dashboards" style="shape=image;verticalLabelPosition=bottom;labelBackgroundColor=default;verticalAlign=top;aspect=fixed;imageAspect=0;image=data:image/jpeg,/9j/4AAQSkZJRgABAQAAAQABAAD/2wBDAAsJCQcJCQcJCQkJCwkJCQkJCQsJCwsMCwsLDA0QDBEODQ4MEhkSJRodJR0ZHxwpKRYlNzU2GioyPi0pMBk7IRP/2wBDAQcICAsJCxULCxUsHRkdLCwsLCwsLCwsLCwsLCwsLCwsLCwsLCwsLCwsLCwsLCwsLCwsLCwsLCwsLCwsLCwsLCz/wAARCAC0ATwDASIAAhEBAxEB/8QAGwABAAIDAQEAAAAAAAAAAAAAAAUGAQMEBwL/xABAEAACAgECBAQEAwQIBAcAAAAAAQIDBAURBhIhMRNBUWEUInGBMpGhB1JysSMzQmKSweHwFRZTojZDc3SCtPH/xAAbAQEAAwEBAQEAAAAAAAAAAAAAAwUGBAIHAf/EAC0RAQACAgECBAQGAwEAAAAAAAABAgMEEQUhEiIxQRMyUaEGFGFxkeEjsdFC/9oADAMBAAIRAxEAPwD1sAAAAAAAAAAAAAAAAAAAAAAAAAAAAAAAAAAAAAAAAAAAAAAAAAADJgAAAAAAAAAAAAAAAAAAAAAAAAAAYZC69rH/AAymFdOzzL0/C5kmqoLo7Gv0j/oR5MlcdZvb0hNgw3z5Ix445mUzzwcpRUouUdnKKa3jv23Xc+jy2jOzsfJ+Lrvn8Q5c05ybl4m73as37pnoWlajVqeJHIiuWafh3V778li7r6eaOTW3a7EzHHErHf6Xk06xfnmPr9JSAAO9UAAAAAAAAAAAAAAAAAAAAAAAAAAAAAAAAAAAAAAAABjfuHued65l5tmo6hTZkXOqrInCuvnarjFdlyrocmzsxr08UxysNDRtu5Jx1njjuv7ysRPleRQpejthv+W5tTUknFpp9mmmvzR5JsvRfkjdXkZNUZwqvurjOLjOMLJRjJPyaT2K6vVvrX7ry34c7eXJ9v7X3P4i0rCcq1N5F8ejrx2mov0nY/lX6lI1HOt1HMuyrI8nPyxjBPdQhFbKO+y+vbzOTY+6acjIn4ePTbdZ5xpi5NfVrovzODY28mz5Pb6LjS6bg0fPE+bjvMvg79O1XO0yVzxnW1by+JG2LlF8u+zWzTOqnhnX7Um6Kat9mvGuSl91BSNz4T1tLdTwpP0Vti/VwPNNfZrPjpWYl7zbuleJx5LxMfy78bjCD3WZiNPZ7Txpbpvbtyz2f6nLfxdqM5P4ejHqh/Z8RSsnt7vdL9CLydF1rETldh2OC33lQ1bHZeqh1/Qj1/v/AFJcm5tVjw37OfD03p95+JjiLR+/MPSND1CepYEL7eXx4WWU3KC5Y80X0aXutmSZVuD7alj51Lsj4zyFb4bfzcnJGPMv8y07+5f6uScmGtp9WO6hhjBs3x1jtz2AAdLhAAAAAAAAAAAAAAAyBgAAAAAAAAAAAAAAAAAAYex5/wAS47p1bIlttDJhXfD/AAqEv1R6AyB4mwq8jBeTuo2Yb5029lKubUZQ/lt/qcG/i+Jhn9O626Psxr7VefS3b+f7UPYzsffKjq07AlqGbj4q3UJtzua7xph1lt9eiX1MtWJvaK19ZfQMmWuOk3tPaHfomhS1PbJyeavBUtopNqeS10+V+Uffz/nd8fGxsWtVY9VdVceijXFRX32PuuuuqFdVcVCuuMYQjFbKMUtkkfZrtbWpgrxHq+c7/UMm5eZtPl9o9mQRGfr2m4EpVOUrr4vaVVOz5X6Tm+iIafF2S5f0eDUo+SnbNv7tJI85d3Binw2t3MPTdnPXxUr2/j/a3siNT0LT9QUpqKoytt43VR25n6WxXRr9SPo4upk0snDnBec6ZqaX/wAZJP8AUn8XMws6vxMW6NkVspJPaUX6Si+q/IVy4NqPDExJbBt6FvicTX9Xnk4aloufBtOGRTLmhJN+HdX57Pzi+z/0PQsHMpzsXHyqvw2wTa84S7Si/dM59W0ynUsaVUkldDeWPY/7E/R+z7MhOFb7aL8/Tbk4yi3fGEu8Zxfh2R/kzlw0nUzfD/8ANvT91jtZa9R1fjccZKev6x9VtABbM8AAAAAAAAAAAAAAAAAAAAAAAAAAAAAAAAAADDIDii3kwaaVv/T5Eeb3jWnL+exKahn4+n0u23eUpPlqqi0pWS9Fv5Lzf+3Ss/OzNQsjO+S5Yc3hVwW0K09t9vPf3KjqW5TFjnFz5pXPStS+TLXNMeWJR3KWrhTGSjnZbXzSnDHg/SMFzy2+rf6Fb5S58ORUdLpaXWV2RJ/XncSn6TEX2O/tEr7rWWa6sxHvMQmOhBcQapZh1RxceXLkXxcpTXeqrtvH3fkTpRdU8XM1fJrT+aeTDFr/ALqTUFt9OrLzqWe2LFxT1meGc6Xgpmzc5PlrHLjwdMztRnKONBckZPxLrW1XF99t+7ZMrhG/l659fP6KiXL+bnv+hZ8bGoxKKcemKjXVFRSXnt3b933ZuIsPS8UVj4veXTsdbz3v/inw1efZ2jajgLnthGylf+bS3KK/iT6r/fU5ce/JxLoX49jrsj2a7Nek49mj0uUYyTjKKaaaakk00/JplG1nTo4OXtWmqL4uypfu9fmh9vL6+xX72lOrxmwz2j7LPp/U/wA3zgzx3n7rVpeo1ajjq2KULYNQvr335J7eXs/Ij8rH+G4h0rLrW0c2N1Fu3nZGt9futvyITRMl4moY/X+jyGse1eXzfhf2f8y7TpptlTKyClKizxam+8J7OO6+zZZauX87hiZ+asx9v+qjbxfkM8xX5bRP3/42gAtlMAAAAAAAAAAAAAAAAAAAAAAAAAAAAAAAAHzJqKlKTSjFOUm+yS6ts+jDSkmns0900+qafTZo/J59hRNQyp5+VbfJvkTcKYvtGtdvz7s5OUn9R0O2qU7sOPPU+sql1nD15V5oheXq1s010afdfVM+fblM2PLM5o7z7t1qZ8V8URi9I9mrlLXw5apYVlL/ABUXz6f3Z/On/MrPKd+lZfwWVGUt/BuSqt28uvyy+3+ZJ03ajDsRNvSe38ouo4pz4JrHrHdcioZ1fwWuRvn/AFbyaspN/uSe0n9upbk09mtmn1T8ji1HT6s+pRb5LYbuqxd1v3T9n5mu39e2fFHg+aJ5hmNHPGDJPj+WY4l3JxaTTTTSaa80+zBXce7WtLSpuxZ5GPHpB1by5V6Rkk+ns0dkdSz8iUY42m3R6xU7MpuuuK36+W7GPepaIi0TFvpxLzfTvWZmsxMfXmEsQPEsYvHw5bfNG+SX0cHv/kTxWuIb1O3Gx09/BjKyz2lPZRX5fzI+q5K01b8+6TptZnZrwryTjKEl3jOEl9U00eiry+255/y/mu326lw0rP8AjaX4myvqahal0Ut1uppe5T9Dz1i9sdp7zxx91r1qlr1pePSOeUkADWM0AAAAAAAAAAAAAAAAAAAAAAAAAAAAAAAAAADBzZGDg5PW6iEpdubbaX+JdTqB4vjrkji8cvVbWpPNZ4VHU8D4O5cifgWda31bTXeLf8jg5S5Z8aZYeT4seaMa5TXrzJdGmVPlMF1fWrq5vJ6T3/ZqNDatmx8W9Y+6S03VXjqNGTu6V0hPvKtej9ixV2V2wjZXKMoPtKLTX6FL5WbKrcihuVNs62/3Xsn9V2J9Hrl8ERjyx4qx/MIdrp9cszfHPE/Zch6Fahq+pxWznXL+Ktb/APbsfFuqalamvFUE+/hRUX/i6v8AUuJ/EGrxzETz+39q6OmZpnjsms7UacKMoraeQ18lfpv/AGp7eRVJuds52WNynOTlKT7ts+2m229231bb3bfu2bcfFvyrVVUvm7yk18tcf3pGc3OoZeoZIpWO3tELjWwY9Sk2me/vLlUN3slJv0im3v8ARE5ouHm03Tvsg66ZVuHLP8c22mny+W3v6kzi41WLTCmtfLHu3+KUn3k37m80Wj0b4Fq5clu8d+FZtdTnLWcdY7SAA0SnAAAAAAAAAAAAAAAAAAAAAAAAAAAAAAAAAAAAAHJqEXLCy0v+nv8Ak0yscpb5RU4yhJdJJxf0a2Zwx0jCTTbtl7Oey/7UjMdY6Zn3MlL4eO0cTys9PargrNbK/GuU5KEIuU32jFbyZtnh5df46LEvVR5l+cdyzU49FC2qqhDfvyrq/q+5t2OfH+G6zT/Jfzfp6f2lt1O3i8teynOO3Rpr6pjlLhsn5IisrSm5SsxtvmfNKt9Fv/dZw7nQM2Gnjwz4v04/137psXUq3ni8cITl7v0W5ZtPpjTi0JQUZygpWdOrk+vUi8bT7rLoxurlCuDUrOZfiXlFNf7/ADJ/0O78Pad6TbPkjj2jn7oOobEX4pWRGQDXqgAAAAAAAAAAAAAAAAAAAAAAAAAAAAAAAAAILizOs0/QtQtqk422qGNCUe8fGfLJr3232AjNU4wmsx6boOE9QzE5RlNKU6k49JckINNpecnJL6nLLVP2l4kXkZGlU3Ur5pVwrrnKMf4aLXP9GTHCOk0abpGJbyL4vPqrysmzb5n4i5oVp/uxTSS+r8zvt13h6my2q3U8KFlU5V2QlbFShOL2afugNWg69ja9jXW1U20249kacmua3hGxrm2hZts/fzXmvWYIeGu8LQ3jVqWnRdtrlJQshFzssaW7Ue7bIjXeLcvRtTtwlh031fC1Tq+acbXfa2op7brb2Ud2BbwVjSNa4jvnl3a1ptOm6bjYjvlfbG2E5S36JKcn0S3b6enqRkuMdf1C65aBossjHpfLKy6uycvbn5JRhFv05mwL0Reta1gaHjRyMvnk7JOFNVfLz2SS3f4mkkvNv/PZ1S7jrUqa40W6ZCnUoZVVV1d6tVXgy6OSi2pqW+3TqtvP0+uNpWrVuF/CpjkWRk5048/wW2+PW4wkt10bST6gS+j8TZmr5tWMtEy8al1WXWZN8pquMIpcu3NVFNttbdfV+RZiu6Xq3EU551mu6ZTp2FjYvjq/xN05KXzJ7Tl2XUh5cY69qF90dA0WWRj0y5ZWXV2WSfmubklGEX7czf07AXoHn93HepU0um3TK6NTryK67a71aqvCknu+VtTUu2y6r3JziTiK7QbdK2x6raMj4mWRzycbFGrk28OW/L59dwLICh/828XVVwzsnQIx0yTjLn5L4S8OT6PnlJ7ezdaX03Ldhapg5+n1alTYo4sqp2zlbtF0+HvzqzyTjs9+vkB3Ao1vGWs52RdVw9o8sqqmW07rYWT337NxhKMY7+Sct9vLqaMjjvVcXHvqydKhRqlNkG4XRtjS6mm5NxbU0+23Vp/YD0AHzXJzhXNrrKEZPbt1SZ9AAAAAAAAAAAAAAAAAAAAAAAAAAAAILizBsz9C1CutOVtKhlQiu8vBfNJL7b7E6PuBX+E9Ux9R0jChGa+Jwqa8XIhuuZeGuWFm3pJJNfdeRut4W4Wvtuvu0ymdt1k7bZud28pzfNKT2l5kRqXCF8cyWo8P5rwcmUpTnS5TjTzPq/DlDdpPzTi19DmnpX7S82MsfK1XGpofyynXYlKUez/qKoze/wDEgIrP0/RcribSdI0TGrrrothPPsplKSfhWK2zeUm+kUlH6y28iVzoQs/aDpKnGMkqa5pS8pQovlF/VPqif0Hh3A0KmxVSldl3bLIybElKaj1UIRXSMV5L89zkv0TUbeK8HWoyx1hUU+HNOcvGcvBsr6Q5du7X9oDPGzuXD+V4e/K78RXbdvDdq7+2+x18LwxIaBoqxuXkli1yta23le/61y28+bfclMnHx8ui/GyIKdF9cqrYS7OMlt/+FKjw3xfo1lsdA1SuWJZNyVeTJRlHfzlGcJwb9Wtm/QDX+0COJ42gzXL8XKySnt+J46sr5XL778v3Ojir/wARcF/+5q/+zWcWRwXxFlRhl5WoUZOp2ZVMrVZOaqrx4PfZTcN3L0SjFIn9c0XUdR1fhzOx3jqjT7oWZHizlGbUboWbQiotPovVAZ418dcP53hb7O3FV23/AE/Fj3++x18LwxIaDoyxeXkeLCdjW27vl1tcmvPm33JTIooyqL8a+EbKL4SrthNbqUJLZopS4b4v0ay9cP6pW8S2TkqsmSjKG/T5ozrnBv3WzA0/tCjieJok1yfFydsZ7bczoUocvN7b77ff0N/HEYzz+EYSScZ5coyT7NO/HTTOTK4K4jy6/i8rUKMjU7b6nYrJ2KmuiKbaU3BtvfbZKKSJ/iPRNR1bM4fvxXjqvAyPFv8AGnKMnHxap/Ioxe7+V+aAnM6EJ4WfCUU4yxciMk1umnXLoedaZK//AJF4gVbk9s6Klt3VUvh3P9N9z0nIhK2jJrhtzWU2wjzPZc0otLcgOGdCytM0rN0/U449nxORbKcKpSnXKmdUK3GTlGL8n5AbeEI4kOHtK+H5PmrnLIce8slzfiOfvv0IH9oscP4bS5/L8Y5XxjttzPH5N5b+yfLt9Wfb4Z4p0e++XDmpwWLbJy8DKltKPl8ynCdcmu2+yZyZnBfEufRdlZuo0ZGqWzrhGE7Jqiujq5b2cm+/XolBLv336B6DT/U0/wDpV9/4UbD4ri4V1xfeMIRe3qkkfYAAAAAAAAAAAAAAAAAAAAAAAAAAAAAAAAAAAAAAAAAAAAAAAAAAAAAAAAAAAAAAAAAAAZAAGDIAAAAAAAMAAZAAGDIAAAAAAAMAADIAAAAYMgAAAAAAAAAYMgADAAGQAAAAH//Z;" parent="1" vertex="1">
          <mxGeometry x="655.9100000000001" y="820" width="140.44" height="80" as="geometry" />
        </mxCell>
        <mxCell id="GyxzSY54GK3ofzCGlce7-1" value="Exchange" style="image;html=1;image=img/lib/clip_art/finance/Coins_128x128.png" parent="1" vertex="1">
          <mxGeometry x="280" y="50" width="80" height="80" as="geometry" />
        </mxCell>
        <mxCell id="GyxzSY54GK3ofzCGlce7-40" style="edgeStyle=orthogonalEdgeStyle;rounded=0;orthogonalLoop=1;jettySize=auto;html=1;entryX=0;entryY=0.5;entryDx=0;entryDy=0;" parent="1" source="GyxzSY54GK3ofzCGlce7-2" target="GyxzSY54GK3ofzCGlce7-3" edge="1">
          <mxGeometry relative="1" as="geometry" />
        </mxCell>
        <mxCell id="GyxzSY54GK3ofzCGlce7-2" value="Stream" style="shape=image;verticalLabelPosition=bottom;verticalAlign=top;imageAspect=0;aspect=fixed;image=data:image/png,iVBORw0KGgoAAAANSUhEUgAAASsAAACoCAMAAACPKThEAAAAhFBMVEX///8AAAABAQGKiop9fX329va9vb1PT09KSkpGRkbd3d38/Pw6Ojrv7+/5+fnl5eUVFRXMzMyfn5/FxcXV1dWxsbFra2uRkZExMTEmJibh4eG5ublwcHBeXl6cnJyoqKgPDw9iYmJVVVWEhIQhISF3d3dAQEAtLS02NjYTExMcHBwlJSUvnWTjAAAMUElEQVR4nO1dDZuaOhMlCOiKiCCKior4ve7//38vSWZCAmzLbd8qrXOeu3aJbAyHyeTMZPBaFoFAIBAIBAKBQCAQCAQCgUAgEAgEAoFAIBAIBAKBQCAQCIR/AME8j+PF2Lcs/9VD6TmyEQNcxsTWtyiJiVacJbsE/3cbvHpIPUYqeGKCKf4yi149ot7iBCYFP5yt+avH1FPEOP+AKUHW+NWj6iXGJVHiPwkg6/bqYfUSR0kRY6vBIi6UicWvHlcPkaBBeeIwOILzepBuaMABq1IOagnckXtvYCWZyUB/+tb0IVucFw+sfwikWd39SqvHkquPVw6rlxhL9emYTRyP6csG1VNEUrLvtaZAcnUgrmpIZFhz0ppC4qodgeRqpDVlkqv7y8bUV/hn6bCSqulDTsvl6wbVV2wlM3cXG2IQo/krR9VPREDNNZTHe8xjhfpZ0/ngOJlMdmny1nL+A/Mwp/k4ya8YD261U6b7NUZCbLJ42Uhfj0ROQpVnaJpVdGM6PjavG+xr4fOsqErJYPpK91YLLWMjf33jtOkSObJVRuZSvbtgNdhvTZajOJICgoc86MMTw6oYnPHGuxeLgz7/Drr7vptUyaw8K4w/n7rutPz51U8PskGxW+7lEuu7HH2OGYL0zMDHP1LdaNQMHHphsFncUVEYs/DEHo/H4YiHKX+Z53lSGmcg86vRwFlMg7ikcz63ojiOM/XH0xRvxo4fDthsNqv66iV8T3IV843nSkTd4Togpezjno+h6kW+UMVJYxEE7D6vPNWaM25uA7bbMi9k5Qp6KawLO45UYiP4UEvL1RKn6n31FBAZmulQyM+wVLVsJVcH3fgkV0N1BtdmhWOdjpa/5iuqx80wCEMuRJylddGJHiFTNnJl1+LTHqKVq1xeyMo4rTEJDa5ClnNOSq6Kwsrs/VfJx0msFSHbLxbDreXc0wG6xEzzhH8VV3aDq5PcD4u1CodLM1w0uHKG1tCRQmRsrWKrnInnRTmt/ZKr++R6KLn6PI7QUI+qMoD97VzBRoVuRIv6rDS5CtikuJeaotiNXWvOjsVBcmdxuyrt7WTMQRes9LLIC5kF+iv8lfsDrrSMDc6a77hKz2mazvZWweXs6FgesGTOvfxm0+KvIIUtpG8okrN/A1cBrIN7Q2ZepCfJtKa95ErPOmtcBYx7opj5xy3PYfCdtOGu/JvJEdbBLV8HV2ugK2o4v95z5S6OlXQv5pVz2kt/pS9cV8mVpzXpXGXT0re5CzcqbTERRrrJfGsT7+e+m5X6IYmsJMsyMF+P1QP1vnOVfzE9JGQf6j57UOtQlYJ40tKYnmwwNcN3lW5tzZnkSpP8feaqlNbDiimU0CAVYyl+bLYO4FLHIIeueh81rv4DPPlxfwlXUm7aBlfl68iVeSuMpw9y0iygxSwNeReuEnn1yJP4h/923SwZEiMaV9vT8ozC8WEEym/CVTBjaEo6bNs8UseQZ8iMTt6Eq51KII/28yhabCVvWD5qK640MD0VyPEeXGVoNCOUm0GqG1T5kw5rbLHG1uFbcOWvgCqhwn35kxw0/VBsLHdZc/6n+vr/FlyBVjcCllI8qhzpSq5+2afm0lbNIra34KqQZrWrNXswM6uKkAU+VrFrK/f7ba60lHEnrl6woTsFs2ps+O1YYz81SLxsPm7Pqde4CsYAbAjz5XW9vl48V70rPjLY5JKrRLSJSKfGlerLV31tr7f1dZvV+vrTAG1VNN6Aqqx1xy0Ck6sIVwZIcYVYgVrKshzCcTbh7wyYgVXVJrjytcpfCNXDrTr7M/bh5PXvcNAVC2lWzV336Wcjpv0RDK4UVR5+CECsC8fpSRyICkvkCjyh1gZ2paiCIWpZVL52B/uK9z+NVDLS8ozE6Nt32qBzFeGle/gZhvpnk6X4BXhR+q2Vq0RqXyV999XZ4uW2fDpXLdazlA7rv3OlrArWgByo0+OANq74OOpcJSj+TAu1NYLtHnBV/CJXyqogq5NU4dLXl614sc05CKjteSVICNA+rs58rMXmL/T9FK72zS0ZwPWbBbIdiqsI3Q9GAROwjKvH17FwIKhTNhRfYfvxg+MqwgHFlbIqHN4Vcmn3jC85YaqM9SlcQVay+egNbmx1LFtAriKYITZStYB+lFAbP5g23yxrLq9W00vIlaIK+5oDNxelHrDU6SlcbeSlXRtvwDV2HYTk6oiXd1BTF5YIrZRkA+wBV5puhzMGZl+Kdr47xvRY1LfC2RP9lf/FdN9ZtUOYOKiaAi+9XJx03mppkqsbWNVD+b9Qtqx1BZsz1s4VQHJ1mwHtCXIIVfczva/siXbFt0qF5qwxMICbOsGAJiqUW922+Ht8/km8nENlI5lsMap0/XMXrmAADzPPb5sPLYgiHvtZXGH948jVQ6y8qi/ace8eVMKbw2kEOg5Dn16G27U9mYbXG3TlqrQubW2BVJG5Zkv//hyuYIu8qkLGAWgJmGly0PKkIptcFxmO4tF8RrMQLbVL8cT1deJKT3/I+3Uzo675M7kaQwqUsYEkYOrdjcxe6SG0bDyQdqiRpXOlKxCx6VgPN5OuXJmO9Chaa7mMzTO5UkZUjuPqnE67g0YJslUZGaq/u3l7Na4MaTv8hivW1V9pAu8oHGKthi18KlfWruJEA/dhTDcwnQzGjGed6lxdp1rfrJEd68iVvC8rt+pLyf0Kz7UrazqEW6iRJeVjdNXIYp+DeeQ5ygqN1RDWwQmrpb3kRkftkfysE1fYlzLKixjWo+mvusvA34dfGJtaYFVibV5UmfetvJxwBGQZT/hKu1qhBFH+fS/7Mr2b04Wr2xScg/LvsezLVCzpf5LM/w/ErM7WOpIawnWAGjAV3/JHoHx04aDiwaEZ7bZpoumhC1dD6RxY5d8hfjJ2Bvy1xlWQpbFe+/SHEF7U1BOE7ZXYggTpoboYDFL0YSmuggOQLk0JyioNrQ0lST/hqoyd3Qc4R2lKUxigLtZyFYr5ZU+DLL8/40G+IB8CT4djpsnSPU6Eqg3SNXoy1czJcGuYyKuXeT19PxEznT/nCvSMzb7kuxdJjKYa8ARuV9EhmC8C66RvEfw5hHIsZmzoGHNKALYTvqnrw6cPJT34wN0WyVCpwA5cQQSPCykys1N9zcBBcK4+Imu0vwXW7SkbFTBhTK6gQrulBlKLq40cMjy7WTopboo7OFrnG9cN5lWw1IUry4G/lp8Fjw2xc8z7iraMVVxNz6UCG482VvqUR/bgmxpa7MosIo1/aFeWP9H9O2Qa+Ox+nNEndubK/wD3J/LtwUEtQbMHOFjkyr3xhaXkKX7K9+C02pV8StWQnjLY+MZfWTiX0b/PK7EvLw/cYieurPAT2BX+PVJcKdZtDDjPgbXblxN/+ZSvdmnlCjfxq9UHnXPrOigwh0taTfnDKpm6//Iyb0WXPAPYFa7DrPRE5dEcKBJd8Zld7eOkjrV1HW/8nK8MmsrbZN4XTCarOMy9w+KkC2iDKx/TJ6Xm5gNPztVsqe0PdqhnAIlRDoD3NV4Zfen7g8NLwG/MExRWaeDyIUK2NHcqCvCfR6mYxis41l17qdfNZ7MKfjybgQj1Y1UOOPHwZCDW4weftsZVWutra3+KvsA/ijJggZWHJ0ve4/X5sOy4+ftb8CaMYc3eXS/aq5I22zzLMdDuuCOtbC+Kt7vd8hdkdTWjxLNn/CURfe0T412sh/rzVSFBofylMO5CE8eXRrBYz8K9FdTmkXIFWubTXen5K1suaj0sj3oOgjMs6tr3QN4qDxLOjESpePdtH3eGTTy7sixm1Blt9KyyyP++LVU5s1EtPg4VW0o7+BYs8+i2UutdvzDZRWE95GIhVPl3I4EWOujdZ4O3NSqVAxKCSUhHXA1NneVHeZru86dIvd4CUplV3gejrsEP/ug94bJGulEmSX+prPjfxlhype/hQT5u1ufv3ngJWlL+8N2GrFG28O5o4SogrtoBc3CpKSaag98AElS25tsdqUzfNub7HlD9Wu0j437J26YSvgf8fzlU8V24Bi363rKzFSEGekue/w9y3CxpFtwSLEflFlbHkaq2oq+6b4OLaSsj80nf8NuKpMpaIVlYj0Cow1OJdgbR4f2NEy8/QbSuNs85lmRV38PVn7ha1R+jIJgI4qEouPu60ALYAdNwvAneM5FOIBAIBAKBQCAQCAQCgUAgEAgEAoFAIBAIBAKBQCAQCAQCgUD4B/E/tJ2Q9rQD7b8AAAAASUVORK5CYII=;fontSize=12;" parent="1" vertex="1">
          <mxGeometry x="230.2" y="460" width="149.8" height="84.16" as="geometry" />
        </mxCell>
        <mxCell id="GyxzSY54GK3ofzCGlce7-3" value="Data lake" style="shape=image;verticalLabelPosition=bottom;verticalAlign=top;imageAspect=0;aspect=fixed;image=data:image/png,iVBORw0KGgoAAAANSUhEUgAAAQMAAADDCAMAAACxkIT5AAABJlBMVEX///+LMCLfUkNGRkiHLiBDQ0W9RDZeHxfxr6m4QjTQTD2KLR/fT0D69/aTOivjZllfX2A1NTfXT0Dw8PDPz8+IJhQ9PT/06ejkdmx3d3hxcXLGxsZnZ2iCgoLxRiHb29tSUlOnp6feSjnZ2dnm5uYAAACwsLCgoKCuPjC8vLyKiosPDgwvLzKZmZqHIw/dRTPwNgD54+FVGxSZNii+ko34urWEGQDxPhHdPivupJ3smpPiXlF2KB1rJBrrkYi+cmnizMnJcWj2yMSWRTnJpJ/jbGHyvrruVT17YWC8jYfwbFn5TSyncWw0QEO3hH7osa30h3nxUjb1kofToJr729l+CQC2NybzeWmjYlnawLzmfnUlJCQaGRikU0nUjIXinZbCZFqcVk0VJK5UAAAOHklEQVR4nO2deVvbOhbGHRxRSmKIcaKQBXCWm5DcsHQBytqUQnunl+F2OqUXypROv/+XGMmSvCd2YtkxjN5/eLIQWz8fHR0d2UeSJCQkJCQkJCQkJCQkJCQkJCQkJJSkyhfvzpVZn8RMpVy83//2ZvU87sNs9HrFdswHmU7li8x2Ljs/l28ux2kL7T6AWIVa6gwO2cB2LpNBDOYQhfhsoaFDIGMBWNHiOshUKl/k9hEBygBRiKlHtKuUABaspwhC+bVhAzYG2BYu97gb67AAZZvgGu8DTCvl9RIjYGOAKOxcfuB7pPOPfwDZAaHG9wBTqvyPG4uAgwGmkP/A0Rb2dg8+FQwIkPmEOr9fn1plZAMZuxwMjB7BjcLe+vr6wTvccrnfJSzkwcw9Qvl1yW4DPgywLSzvcTnYh13EYP3Pq3/CwoYkaQSCWuTy29PrOuMm4MMA28IxB7+wcLBu6OMffePa9w3vqM7YIZT3PQR8GczNNS8jH2yPIjhY/4u8sQZSwaDkReDPIL8a9VgLuwTB7ucX5I0OGRgGMw6ZE2RwSKzg4CN1LUqXDQyRWxFNyTEgVnCw+7lMXmsVlcYHW9GbEUmJMTgyEOx+YtF3S6fRItBnPXtMioHREQ7Wz1ic0dNZsKj2ODQjkhJicLhrGMFX9roxoAjA7BEkxOAMWcHBvxaYEWhrbNYE9BRMFhJhgK1g99ML9rJtThyhvsGlFdGUBIMvu2hAtDIRPZm5AthPRRYpAQZfDg7Wv5TNlw3AXAFspAJBAgy+7O7ajEDpq8wVyLP3hkRxM1A+7/55aF1umysoJOoKyv/+UB75GQ8G5Yu/Rln1Z9uAKEkbFoJEc6nD65tvO2+Oz86/+p1nVAbl4cXt/s1+s7ngh1n5+8Ced6hBMypocGlbOJWvM6Xsczz/b84tf9974eYQgYGiDV/fvs9to1/ILuaby4ceCsqnv1/YXnZMb6gn6AqGV9ulXAYzwI3IN3d2js8WHPYwLYPy3evb3P52jmQfsouY8tyRk0L5syP51GUIoN6Kr8kuDW/3jRZSBqQlzWYzf7nwlV2fKRgoL4bXS9vbmK75D4v0t4/s1/3cjkTZYgMCrCbnCpQl2j47Awpi5/j7obGWNimD8t31bWa/5E5ALtIvjU429U1v2E/QGypLbMnEzYB1jOXD83OfVNoIBpfDi+ulfdR+77+YDPLLAQgA7CZHIIAB6xgrPgj8GcytZLfd1z80gw5DAIg3VFrJhIjBDHDDwjNYzPoDCMGgRacIYECnicqgksjQkCIGNGECzAFBUYEKu/E7hvQwoD0ByGZ4rKhGuNyJu0dMzSB7knm+6P3q1Aw0YgYAWGGBwQCFi4WYI4VpGGSzJ6fPDJ0iDit8GPRIZABtHkBR2TAR70g5MQPUfgoA6+XLZyeZTRuGqRlUiRlUbIbPGOAOEedq4yQMrOvv0EsEIrM5P5c3vjolgzbpCgP7XNligEwhxvWFsAxGtN9mD6fZTdQvpmVQJGagO87NYoDvRImtP4RjcGJc7AChr5xmNkciGM+gB72rSQ4GMqzHtcwSigHS/OZS9vTZOBCnpycno40giEGDMOiMZoBGzZicQlgGWIuL86+yuEd4SJyeZLNj2x+JgZlRkONZZ5iEgXH++ZX5TUSC9Y2gix+WAYmQnHMlGh8Uiiy5BuK5CWFSBlQryCROwlz8sAxqkLTXj4Gk9dkCPIhjAjElA6wx7m9yBht0bLQ7f8ZAwWbCIMRgCVEYTGIEQQykOrkVz34vpo2BuQoPYrg3KzUMurSNnliZMJDaBfe08ukxaBPvD2TPnIkwkLQKpaTzDpZSw0Daok0EprE7GUgKXYznnm5NDwONhgFAZkGCi4GkUEuA/bQwyHNmINUYBLXS8mVgWQLfBajpGKyg+OD5881Xr17h2VRIFoE51YaZWZe32n4MJIWMHjLk6hcnZIDbvonajls+jyfLKH6ep6+DWITPraOpstxHs2gPA3bzMijwdAnhGKwsorZu0qtOm+rKJ2IWxDCmZyB1zWdXAISFBvQwkNok+QwrSTNY8TN535zqSoS8MlbP9gAPoAOFI35GXoP0Bo5BczgGfg0btcYSiYHUqqvOB1jcDKjXADK/bEJ6cuvshDo6dEKQqz17e+ngACvcUu6pY4AfaxxAhy0AVV7r2W7VIZ/y6w0pZIC8/5bu7BEAwEHFtAbiEoDKa2xIJQN0rTt12WkMyEXqaz3SbNobeIWLKWWA1OrWXX4BoE7RxxjYAMlpGp1eBqipv6lu94jCBrlS00jmjdfzfulm8Pvv9yhWdHlIoBYqXIOEtDNAUrfqqhsD/atzGR/Tz+A3VVM2ugW3izSkdoJ/5YkwwOdZ3NIHHgx85k5pZqCo8P4/lAHWxlbV1SlkLjdvpZsBHgjubbGQVtxC79gwAJmDR0g7A6SCs5k1FERaGCAHj5B+Bu55I/YN/QJky28cPMJjYOBj7lqtrxJr4LAE+UgZYCFrQBg4BIuPmAG2hjUdgsj51UfNAGPorUW+U+mxM8AYBIPoEgwEA+M4goFgIAkGxnEEA8FACr3e6LOwHs96o+Pc0sRgznbXwUgGeHn++Wa0tXfXuaWKAbnEK6SVRjPxPRjm2/PklpSAuzCeAgMLBmHxnBIJcQvK02NAtZnN8Ltf2ffcHgWDiSQYCAaCgWDwdBnk85s+NQ7+XxjkkZr548t3P5ZKpVwuNImnwgA1f+54efX70eEC1s+Htz9+LGX8ql48RQb44uPKQWe0+ZZ+Pjy8fb+9XQoi8cgZ5JHpr54dLewtjNLe4cPbW9Q5xmB43Azy7zwX318/H/47GsLjZrCSy/x4+zDGCgwdnn1fzj/Z/MFKJoPd//u3P3+ObP/qseEwn24eiXwllystYXvwtn95rpk3yh88eQYGhlyp9P7tA7OHo7PVuSZrfzwMYOw7L0yTU82VctgeDs8usf07v8r9fiQQf9WwKfPK2B6+Nd0AuDMAaiGBssKpzq0P5ETqpqWZgVZPpoRiIAOjdl54Bis309eMm5XGM0BThOPVsw9fw9cOXC1fXP3KeWonpptBaUQNSXz93ywfnePiqhPWkCwP765KN2YNUQ+D5vGsW+2Sby3RfPMNq6GJNU09VVJL1T6XZLVE845aoqmQMrzNlSwGeIZ8vHr4tWyLzqasKauU765/LZmbGpGassdnqSNgaHh1Q2sL4xrLe1/d9X+j1Fcu313cbu8blXsXkQ14awunRsOr0reducuzPd+LFLXGtDK8uHpf2m8ep5gA1vDh3FNbmolHrfHy8OJnOntBOCW5P1NaJRgIBliCwWNkoCi8k09TMVA6DUOeB44U8n7DfEi1R16zx9rbXeOla86odZ2/Rv/Ju0+HVutWdHUwgPV+h+MuHlMx0AqqsTuz54HcBnlfrbJLVTfeGLAnuIsD43PX7mRt411VZ68r5J/cKZZ2XweQltyCUC70eGWhpmNQZwXOnD+msZLiZiGLqnOjziKtMuws+9J2FRf03dVR2XI/HK3WOT0cH4mBe8s9tv1WEANXfYMwDFqy+zl5XL2dz/5O0RjIjieOaua7QQycDQzBwNrXyiE+lVOiMrBlxxU9PAPHhoXBDGr24koQ2p4DrXKAEJGBvb7ZlmmtwQxkWLdXgglg0DL384H1tUan06+aPYNH1ZDwe9r6MwCy+di2rQRUMAO7KwlioFSZ+6nXyNGU1pqJJXqxCIXmmoIY5JvNQz8GVonQ+mQM5IF58kEMuszV2tPxNbanA4jeG2iuKYCBM0dkZyDTUrAdm98OxcCqHBrAQKG/7HoGfIO6ST7VBu9ub0rjGOSbO84smZOBbrxld9yhGFiNDmDQGVFessa2i+cTK+G9rEYy8Ow9ZcVIVs8moQHQQzGgRU9Yq8YzoN7Ap9YqrUfIqxyvMvxVKvky8MsVEwagwOqktsxrQiv7jGcA6rqj+M14Bm36Xe/a3Aa0rgEfDS3vaDJw77zlZKBrpJAPqNLdRmBnQw3BAPaLzJ+1ghnUaHztU0yPHt5TRSESBWoLjAHyhL6ZUsZAaVN3RUtg1qWQDKQO7RSGgY9n0IUjez39iG9F4rtfhnckDJpvRq0XmAzM8tGsT4RlIFVtjm48A9LrwZrkFa3kznuT7OHVfimHGOA1o5HZcosBqwlsnDQapEIzYG5V7QYxIAbvGw8W42EgKS9uM6X55vG4VTOLAfNLrA2hGZjxLyimj4GEbeHb+BUTGwMriDO20gjPwNy4Ste0MH3Bb4bYi8MfMAWVZrAxkGxGPREDNrzDtfF20Bjd0C2f6rxJycGgaC+LPAkDM9JaA+MY0LHRJxJS2NAcVzvHycFAahh7r5HgfxIGrHoqG1VGxUi0r3nLLrPMHJfqcpPKyUBC0QGL1SZiIPXsyaGRsTKtqOjduoeVWpzJnvEuBkVglrSajIHUV4MZsO3ePN2+507gJioXA6l7z6bBEzIwsyPjGEhsbubcFpv6CW5TpgnlZqCZU/gJGbAtOsYzYKkJx3ZeDeZGZuIRvQwsTcrAykWPyyeyYBSg2RbZwaVXZ/5Un4k34MpA6qrBDNpmxhrKer1SLehmZplngfqJxJOBVIeBDKzEMp5vY7EXaqI7JdvFlYHGkqPj1lg2CtbczBIAMwkNDHFlQGfAAWttWsVbdRbqsxkSyAlxZUACzaA1V6mnqwDYCSSxN/JoaYWBiiR7z6F1jz8YWGvvxhfvTQbkY3c+pGJ8S3e+vPc83tCr6CqE2B1AVa7OlABSq2jI+4FGPjDHqw3yWhvxsePt1oh/sqlda6xV6/XKVm9jJsGhkJCQkJCQkJCQkJCQkJCQkJCQkNDT0v8ABHT4CsM0bqIAAAAASUVORK5CYII=;fontSize=12;" parent="1" vertex="1">
          <mxGeometry x="470" y="460" width="106.26" height="80" as="geometry" />
        </mxCell>
        <mxCell id="GyxzSY54GK3ofzCGlce7-4" value="Infra" style="shape=image;verticalLabelPosition=bottom;verticalAlign=top;imageAspect=0;aspect=fixed;image=data:image/png,iVBORw0KGgoAAAANSUhEUgAAASwAAACoCAMAAABt9SM9AAAAwFBMVEX///8zbuU3NTUvLS00MjIsauQmIyMfHBwjICD9/PwrKSm8u7tulOt2dXUyMDAoJSXGxcVNS0uHhoaYl5cnaOSura3r6+sbY+O1tLTR0dFhX1+Pjo7f39/y8vL4+v4UYeNubW1eiend5vrQ3Pi8zfXq8PxEeefY4vlOf+iiufGioaGCgYEaFxfCwcFBPz/l5eWXsfC2yPR6nOyEpO7D0vZjjeoAAABVVFShuPEAWuI6dOZgi+oTDg5lZGQAVOGNqu+A9ekgAAAL1klEQVR4nO1ba3uiSgxG7qAFLyBaRaxKL2qpVrtubXv6///VmWS4DJT2uHu2pfsw74ddDDNMeEkySaCCwMHBwcHBwcHBwcHBwcHBwcHBwcHBwcHBwcHBwcHBwcHBwcHBwcHBwfG/YFStAAdHzRFurhsXi6q1+CsQviqO0lC8y23Vmnx7hDvPaSAUr7GdVK3Od8as5SmNDJ6y4XS9g3meKoCjbMKq1fqOmF8ERaqQLm+HdPHMK8PiupQqSldrVrV63wnby7wDOsWfrXnVKn4XFKlqOK/zi7xE8R44XSQW/VTehnUSwbyCTPGu9zi+aoWrQ7hxnJIoVUIWoSuod566UUqoIvlVKNyUnSBp/b62tnX/1nwoWVfCa/neqDzuq1a6IlwF5Vw1grlwX2pyhK1j1VpXhJ+lhCiO1zCE+aPnlBpXUNOcq/WWDbIztm7mkLLP9ptrr4RNr6ZBPrl/p5E2Gi4XbPgOX9MWhHNMjnaV6VslruLw7syELUYv5/im4zfZ4SDlMhQ2lC3lugpdK0eSHSjkGNjyWnE/JoSwdBX/2CtKQ2kQx1zEw51atiHu45Cl3AvAVvCK0nBzfIQjx3uiWUJ4DI6En1katGqZPKQx22mQoB1i7Te5DxzFuSFHlwq0SlE2Q3myGzivlWpdDUImIw1aVDbHjN4BjrCSDh6oM84a2b6oXFSnc2VYsOl7gKH96h8ldTSaVwSUmQs2h3Cq1Loi7HLddtqAucIEAX9gRAviPCGXkZFiqHa4ZghQYjcUjB1si7Ab7mATTGL5JGdZNxVpXB0mOS8EY6EcLBwngOTg1fMeMEkIgbFdGbP1AduwwkRz/s89npg8PMB/s0tKHkld4RdbcytV6VwZ2IYVOlZLcS7eviXcezTes07r1a6WZmM2RPRQoVVNHltifw5YHNvfql0tbbAh25ugCRG2lLzRbND7oIW1ZcbXrpa+YuM7sEGbWwpNoloPP+G/7SPlMsyPr10tzYYsvHnwM8UJnuBky1MwS501sAMIXjpjya1bLX3P5gKQpt97JFe4QS8EF41dbb65Drxgny+OaldLH9lUACxrs5unfb8nj3kxES7g/WrI5g7OphKdq0LOUJRG4exkc11sA149Fk2xPkiraM9zGhenhKD9RcNJe/Lepyv4nZCWL4swS0Qns8XrxTErk18brZ/7GXM+jFvLNaul44ScBh/a99sQKyObn5eVyUdFcbzAOcLpcI+kXcbzflahdEVIqmjlIgy3F15wSWTzIE2qyAD4h6YXikIC/+zRc1r7yT7pRNeplk5bDoqXZlLCg5PSsHsEAW3MYHHz6uDYdNpDpep/MS4Ln1/B9obcBMDSLKBv6SGyZadqmzssCp85IEekPFTAIYUnhdoTSduVI3jkLk+W0qjXR8y7/Ac0lJNFgOGdtrpAcOHAG8M3X5B4dfsK8KnwZSTGqivoP9CtEj1tcQm/J8f82GBbt4+0igx4WAwCN1tqdFAtIyXGdYHXur04NAp9hJQtAlI6eyS/CuIgPilyVa9aJ0YxyHtPcdiezBfbffKtw1WjsHHWLLgn2BRsyylprt8U/5YAPmarV8CK8VBIn+CNGGs3kzdJQw2DewKjEOQbhrANWturcDKZhPOba1JU7/O+6tUtuDMIc3ZDEtFZAN+Ueo6DRTWkqLk398pT1RpXBuJOrOFAWfia9zrilyHb9LusZ3BPcJMFeeg35L0SUyrm1YZX1+CeoJVy4Rj5F2SAI/tpErzxqTVXzIt5pXXTKMJ5yGRerVoN5ciCUtkf8mQyp04Nv3cxf++vUvKsHesd3BEGZOknkOXV7C30u3jvr5pYrur7t3NFFBoLJVzx4J4iLP8LsBQ8uLOYKaS4eRdBfauctyDBKPzZehf3dfvS72Pw0P0Hwcnk4OD43zBOjSR1jzjjwej8+fa/x/Wbvak5+nx9vjWmmmnp7f8e13w2JbP3+fp8a5xJoqieQpYqipysb0dWf+i6X7HOb+C7kTV81nTt7PPX+S18O7J0UZQ4WaeBk/UL+FvI8g3D8H0BklRyQD8/85MjJGspDN2lO8xdwGj3Rr3BXf6q/vjWdd3mMBPftQfL5bJZGDd2R6PlMMl1YbW2imQZmQ54vSZZpNnPze03l6NRzx36v3/zv4qMrLNnTdN+ABNTcvQDZe4PTXtewRGQJXck3TZtTRyk0/2Vrpumaa8PqXX6t91I01TbtlVdU19A1DvYGplpmuq6w1jxbWdNhLaujigrXbKuLRJYGoKuTIierlWc/DJO5w4PKCOztUOexE9EStZQI1pqbiKjieoAnnMXjoAsURYR8jrxx7FsUpForZP93tKleByBNAVRJKUCOR0ndNfJOLuD5jEyxRzoymTpZLqUps/LtZUOW3+ZbSVkGRbRXO+lspgsO0cWuVcZbzAukMY6/JJMvJnn+EZkmblfGuY6Mp2LoufYPM50kJkmXqIDkiJZJq7cfhbTReQ19eNhLDPJc5GjL6IqI2tFFLXPMlkpWZIWHUQ0MapgRB6vrJ/1ViocRNSZkBOJ+KCu2pKGrCJZctSRzNTYhOYaTCoa9Q5Amg6e3V2rKvJlqYg1uKGvykDLqjeFJ2MdcPILrGef9XrdjqZNv4qrhCxQ3TxnZGVkWVOIDi6wpQMJAx3iGDxrH+jQqbkBWdbKvW23b90unkWydJjbAy50IxmmLuHI1WMSIKjHu6FBIVBzs87B08YQBtZglwZENomGKn+QRdDPBiWrDyp2DEZWRpaZeakEDz0iymt0bxzrsSxmIb8IkKXhvYEvaXC/bWAofjpTWC/eJ4upg4F2R6MSzLEh5PkgtL6+YQR3bt+S27Yin5V9QFYbDYpsUpqYBQzCh4yBh5KVv5GMLPAfvHQXHlKchEC6oMZtoiJZbfa3mjwR2EKs6IT08M8CiBEjCJN+TvYBWX0MXzFph4ELGBzIJWQ8/SFZyFGTHJDxJG/DuW5Pii1GeEvW0gb3p4u4YmKNI/BDWY96+Zzvs3EWb8uxD6WyD8jyZRp4BqixTQEyMwtG75EFEQjJinACnQuBzFzSoUWyRqCfFS8C62GENyLcCGRTi9wv9EYkC6xaH+VkH5BlQKAlYcS18zu9bJ9OliHK+clJKVUkqyvlx1nU143p2qT5iB6Nha8CEGO6oLq2ZGUfWRbor8aWJUoZftmy5Gyu/pFlMePMQ3xi3JU0zH5lvVBDfR5wNxyOIQxpSSt+lQSWcrJg55PFeEObJrt8vNOfShbELHKXhbnlMYusW1wEYAy7MuYQL3+clXfA5Fk0h4nviMaQUrLA/Syi4N06jVMsTiML3MtcFudSssgTSJFsve8AuEwyi89HksHD/iLLdFVggypYRpYPPqvC5gUcSNMiW6eR1YZStORNyRjyESv7jfknrXsY3KbXP7eSS38B0kK6Q1Y1qf2DwkTBO78PGXdGltT1fb+NNY4EtDZhnBS5475/N1weYi8+jSwatNSzNlll3FyltoP5prlC6Qvk5j1gyz4Mxr5/1+5FGJ8MTVrd9g3B8NtiFZYljMGpaNeB1nKSpmtYyzG1oa7qUKolm8EBo6+t67qmm0mIPpGsuBYmMzVNlfR0QpSsralY1xuihcmDhotoaIt3miypRDmij5jWi1+ArJ81ytz/9pnZrHNdBwp9Sif7HSZ7SDK1E8kS3Gcme9DSHW2gZVdEQ+/bTPZAIwEEMjHpGMnPX5aZntmWRR+XEUmWZdKdZblOFJSlNW3+PSddKiJJUzKjq5mJ2I5dSSKX0QpkEdGakqWSk5QsoR0lnS/ZYl6KY3cBpaaIgv5US9fWUb/B2k7aWZYtnfA+/Q9hdH5+fqCPpnkgxx26Iw6nEvQqdamzcvGh95dnkamDTF6xT3I86qggVTurOFqfwxXzZE1BhGQtyRpZU3UwlbElKr8smRjtxleMzmJWheEqwqXNw4iu7bsvqB+RLL+wrfwujP54fOcbedHdePx25/FB+rsqk0vevblkyRVRlNMGZ9b9UxUODg4ODg4ODg4ODg4ODg4ODg4ODg4ODg4ODg4ODg4ODg4ODg6Ovxn/AnrP8bD4uHstAAAAAElFTkSuQmCC" parent="1" vertex="1">
          <mxGeometry x="510" y="280" width="107.15" height="60" as="geometry" />
        </mxCell>
        <mxCell id="GyxzSY54GK3ofzCGlce7-8" value="Trade analytics RDBMS" style="image;html=1;image=img/lib/clip_art/computers/Database_128x128.png" parent="1" vertex="1">
          <mxGeometry x="365" y="830" width="60" height="60" as="geometry" />
        </mxCell>
        <mxCell id="GyxzSY54GK3ofzCGlce7-18" value="Strategies" style="group;labelPosition=center;verticalLabelPosition=bottom;align=center;verticalAlign=top;fontSize=12;" parent="1" vertex="1" connectable="0">
          <mxGeometry x="280" y="660" width="160" height="80" as="geometry" />
        </mxCell>
        <mxCell id="GyxzSY54GK3ofzCGlce7-16" value="" style="image;html=1;image=img/lib/clip_art/finance/Coins_128x128.png" parent="GyxzSY54GK3ofzCGlce7-18" vertex="1">
          <mxGeometry width="60" height="80" as="geometry" />
        </mxCell>
        <mxCell id="GyxzSY54GK3ofzCGlce7-17" value="" style="image;html=1;image=img/lib/clip_art/finance/Dollar_128x128.png" parent="GyxzSY54GK3ofzCGlce7-18" vertex="1">
          <mxGeometry x="70" y="15.56" width="60" height="54.44" as="geometry" />
        </mxCell>
        <mxCell id="GyxzSY54GK3ofzCGlce7-20" value="Connectors" style="image;html=1;image=img/lib/clip_art/computers/USB_Hub_128x128.png" parent="1" vertex="1">
          <mxGeometry x="280" y="270" width="80" height="80" as="geometry" />
        </mxCell>
        <mxCell id="GyxzSY54GK3ofzCGlce7-26" style="edgeStyle=orthogonalEdgeStyle;rounded=0;orthogonalLoop=1;jettySize=auto;html=1;" parent="1" source="GyxzSY54GK3ofzCGlce7-16" target="GyxzSY54GK3ofzCGlce7-8" edge="1">
          <mxGeometry relative="1" as="geometry">
            <Array as="points">
              <mxPoint x="310" y="840" />
            </Array>
          </mxGeometry>
        </mxCell>
        <mxCell id="GyxzSY54GK3ofzCGlce7-27" value="Metrics" style="shape=image;verticalLabelPosition=bottom;labelBackgroundColor=default;verticalAlign=top;aspect=fixed;imageAspect=0;image=data:image/jpeg,/9j/4AAQSkZJRgABAQAAAQABAAD/2wBDAAsJCQcJCQcJCQkJCwkJCQkJCQsJCwsMCwsLDA0QDBEODQ4MEhkSJRodJR0ZHxwpKRYlNzU2GioyPi0pMBk7IRP/2wBDAQcICAsJCxULCxUsHRkdLCwsLCwsLCwsLCwsLCwsLCwsLCwsLCwsLCwsLCwsLCwsLCwsLCwsLCwsLCwsLCwsLCz/wAARCACvAUsDASIAAhEBAxEB/8QAGwABAAIDAQEAAAAAAAAAAAAAAAEGAwQFBwL/xABIEAABBAEDAQMHBgoJAwUAAAABAAIDBBEFEiEGEzFBIlFhcYGRoRQyNVJ0sRUWVXKTs8HR0uEjMzQ2QlNUc5JigrJDosLw8f/EABsBAQACAwEBAAAAAAAAAAAAAAADBQIEBgEH/8QAOREAAgICAAMGAwYFAgcAAAAAAAECAwQRITFBBRITUWFxFCKxBjKRocHRFSMkUoEl4UJTYnKi8PH/2gAMAwEAAhEDEQA/APW0REAREQBERAEREAREQBERAEREAREQBERAEUJ7EBKLE6euw4fNC0/9UjB95UtnrP4ZNE782Rh+4rzaMu6/IyIoRemJKIiAIiIAiIgCIiAIiIAiIgCIiAIiIApUIgCIiAIiIAiIgCIiAIiIAiIgCIiAIihASsNmzVqROnszMiib3uecDPmA7yVqarqtTSq5nnO57y5sEIOHyvHgPR5yvONQ1K9qc5mtSZxkRRtyIomnwY39vetTIyo0rS4stcDs2eY+9yj5/sWTUOsnEuj02AAcjt7I5PpbEP2n2KuWdV1a4SbF2w8E/NDyyMf9jMD4LSTz+5U1mRZP7zOvowMfHWoR4+b5matUs3p2wV2b5XAvcXHDWMHzpJHHuAWEhoJxg4JwW559I8Vd+jakPyG/ZcMvszvrOPiIo2gbQfaSqfbryVLVqrJ86CZ8Z47wDwR6xgrKdThXGb6mNGUrciynpHX+5lranqtQg17lhmP8O9zme1j8t+CsVDrKZpbHqMDXtP8A61YbXj0ujJwfYVVXQStggsOG2Od8rYM97xEQHOA8wJwsaxhfZU+DMrsLHyF80V7o9cq26l2Js1WZksR/xNPcfM4d4PrC2F5LRv3dOnE9WQtd3PYcmOVv1Xt7l6NpGr1dWr9pH5E0eBPCT5THHxHnafAq4x8qN3B8Gcl2h2ZPE+ePGPn+51EUKVuFQEREAREQBERAEREAREQBERAEREAREQBERAEREAREQBERAEREAREQBYbNiGpBPZndtihYZHn0DwA857gsypnWWoEmtpsbuMCzZwe88iNh+JPsUN1vhQcjbw8Z5N0a115+xWtS1CxqduW1MTz5MUefJijB4Y39vpWmiLm5Sc33mfRK4RrioRWkgrFqOmA9P6LqYYGzsghjskDG+J+djnY8RwPauFWrSXLFWpH8+zMyEegOPlO9gyfYvTdToGzpNrT6+AX12QQ57m7S3afZhbuLT4kZlP2nl+BbUk+u37cjS6UiMeiVHO4M7558eh8hwfuXD6xoubdpWYhzea2sf99pDGk+wj3K6VoIqsFevED2cEUcTPU0YyVoaxXFh+g5H9VrFeQ+psch/YFZWU7o7nsc7j5jjmO9cm3+BXeqqDalTQhEMQ1WPpnHcCWtcCfXgqpr1bU6LNRo2ajuDI3Mbj/gkby13v715XJHJFJLFI0tkje6ORp/wuaSCFXZtXcmpLkzoOxcrxaXXL7y/U+Vs0btnTrUNuufKjOHMPzZIz85jvX4LWRaMZNPaLucIzi4yW0z1ulbgvVoLULsxysDh52nuLXekHgrZVG6O1Axzz6c939HODPXye6Rgw9o9Y59hV5XR0Wq2CkfO83GeLc6+nT2CIinNMIiIAiIgCIiAIiIAiIgCIiAIiIAiIgCIiAIiIAiIgCIiAIiICP3rynVrJualqNjOWvsPbH/ALbD2bR7gvU5nFkM7xwWRSOB9TSV4/knk955PrPKq+0ZaUYnTfZ+tOc5+Wl+P/wIiKoOsLF0fXE2qyTOGRUrOe30PlPZg+7K9B4VE6Llay9qERI3TVY3M9PZPOR/7le1fYSSqRw3bbl8W0+iRK+HxskLNwz2b2yN9DgCAfivtFulMQvN+qYGw6zaLRgTxwzn85zdpPwXpC876tlbJrD2tIJhrQRvx4OOXkfELQzkvC36l52E38Tr0ZwERFRHbGxQsmneoWgcdhYje70sJ2uHuJXrgwQD4HuXjL87X4+q4j3L16k8yU6Mh5L60DyfOTGCVb9nS+8jlftBBbhP3RsIiK1OXCIiAIiIAiIgCIiAIiIAiIgCIiAIiIAiIgCIiAIiIAiIgCIiAxTt3w2GjkuikaB62kLyAZAAPeMA+scL2PjvXlGp1jU1HUK5BAjsSbM/Ucd7T7iFV9ox2oyOm+z80pTh7GmrBomiadrFacmzPDbgkLXhux8bmO5Y/a4Z847/AAVfW7peozaXcitR5c35k8f+ZETkj1jvH81W0yipLvrgdFlwtnU/AepdP2LFD0xrWmW4LlGzWnML87JN8LpGEYcw97eQrm0khuRg4BIPgfNwtCPWtDexj/whUbuaHbXysa4ZGcOBOcr6/C+h/lGn+nZ+9XtUaqlqD4e5w2TPIyWnbHivQ30Wh+F9D/KNP9Oz96fhfQ/yjT/Ts/epvEj5o1fAs/tf4G5K6RsUjo2dpIGksZuDd7vAbjwFST0nrN2eazeuVYpJ5XSSCJr5jl3mJ2jjuCtX4X0T8o0v07P3r5drOhta5x1GoQ0Fx2ytccDzAcqG2FVv33wXqbeNZk42/CjxfpxKhrOg6do9ISutTzWppGxwB2xjRjynu2NGeB6fFVtdLWdUfq1x0+HNgjBjrMPe2POcn0u7z/Jc1Ul8oObUOSO1woXRqXjvcnxPl/zH/muHwXr1FhjpUGHvZVrtPrEYBXlVOubdyjVaCTYsRRnH1c5cfcCvXBjA9i3+zoviyj+0E1/Lh7v6EoiK1OWCIiAIiIAiIgCIiAIiIApUIgCIiAIiIAiIgCIiAIiIAiIgCIiAYVJ6y08tkraiweS8CvYx4PbkscfWMj2BXZa9yrBdrz1Z25imZsdjvHiHD0jvChuqVsHE3MLJ+Fujb06+x5GhW1fo2dOtS1LA8thyx2PJljPc9vrWr/8Ai5uUXF6kfQ4SjZFSi9plw07pPTrlCjaks22yWIGSvawxbQ5wycZblbX4laV/q7v/ACh/gXJp9WW6dWrUZTruZXiZE1zpJAXBoxkgBbkfVmtytD4tH7RhJAfE2y9pI4IDmtwrSDxmkmuPszmLodpqTkpaW+HFG1+JWlf6u7/yh/gT8StK/wBXd/5Q/wACwfjP1B+Qpf0dr+FPxo6g/IUv6O1/Cs/6X+38mQ/6l/zP/JfubH4laV/qrv8Ayh/gWvc6R0ytUuWG2bhdBXmlYHGLaXMaXAHDcr5f1XrkbS+TRjGxuNz5W2WNGfOXNwtSz1fcs17Nd1Ku1s8MkRcJJCQHtLcjIWM5YqWtfkyWqvtOUk+9te6KznKIs9SpZvWYadZuZpjgE/NYwfOkd6B/971VJN8EdTKShFylyRYejqDpbc+ovb/RVWmCAnudM8eW4eoce30K+eC1NPowafUr04B/Rwtxk/Oe48ue70k5JW2ujx6vCgonzzOyfirnZ05L2CIinNIIiIAiIgCIiAIiIAiIgClQiAcJwiIBwnCIgHCcIiAcJwiIBwnCIgHCcIiAcJwiIBwnCIgOXrGj1tWg2POyeME15gMljj4HztPiF5xdpXNPnNe1EWPGdru9kjfrMd4hetrVuUaV+F0FuFssZ5AcOWnztcOQVp5GKruK4Mt+z+054nyS4x+nseSq4dIapBGyTTJnhjzK6WqXHAfv5cwHz55CwX+j7cZc/TpmzM5IhnIZK0eZr/mn24VesU79RxbZrWIS05BfG4NyPEPHHxVXGNmNPvNHS2Tx+0qXCMuf4p+x63lP5LzKt1PrdVrY222SsAw0WWtkI9G4kO+Kmz1TrlhjmG3HCx3B+TNbG4/9+S74qw+Pr1yZQ/wLJUtbWvP/ANR3urdUhEH4LicHSyPZJa2kERsYdzWH0k4Ps9KpSzQVr1x+K1axO5xyXRxvcCSeSXnyfXyrDQ6PvzFj9QlbWi7zFCQ+dw8xf8wfFV81Zkz7yRfUvG7Mp7kp/u37FfqVLd6dtapE6WZ3JA4ZG360ju4BejaJotbSITgiS3MAbM+MbsdzGDwaPBblHT6GnQ9jThbGzvcRy55+s9x5JW2rPHxFV80uLOc7Q7UllfJDhH6+4ThEW6Uw4ThEQDhOERAOE4REA4ThEQDhOERAOE4REA4ThFKAhE4ThAEThQgGQpyFWOoNc1HTLdetVZARLXZLukY5797pHMwBuA8Fq/Levx5ZosLe/b2MWfcH5WpLKgpOKTevJFlX2bbOuNjlFJ8tvRcVGQqrQ6qk+UCrq1YV3lwYZGhzAxx4HaRv5A9OVau9TVXQtW4s1cjGsxnqxcyUThOFKa4ROE4QBE4ThAEThOEAUKeE4QEIQCMEAjzEKeE4QGrJp+mynMlKo8+d8ETj8QjNO0yM5jpVGHzsgiafgFtcJwse7HyM/En5nyAAAAAAO4AYHuU+1DjBPHHJyscU9aftOxljk7N3ZyGN4cGvwDtJbxlZGGm+Jk4HClYLZLat1zSQ5tactIOCCGHkFVfo2ezO7U+2mll2tq7e1e5+M7843EqCVyjZGvXM268V2UzuT4R1+Zb0ThOFOagROE4QBE4ThAEThOEAROE4QBE4ThAEThOEAUqOE4QBERAFBUqCgKL1d9Laf9mrj2fKHK8qjdYEN1Wi45w2pC448zZnnxXTd1no4aSILZdjuPYge/eqyq6Fd1nfeuJ0ORi3ZGLR4Ud6T+pg6zggEVCxgCYySQOPGXxlm7B9R+9dmjd7DQqV6wJHCKjFJJtwXuDQBxuPf7VVpPwv1XbiLYXQUY8tDyD2cTHHyiHOA3PPhgfcrVqsMcWh6hBG3bHFRdGweZrGgAJW25zuitLX0MciKjVTiWPck+Pom+RjZ1DpjqB1B5lji7Z8DI3hvbSPZ3hjQfb3rJpGsw6w22+KGSIV5GRkSOY4u3N3A+Qqp03pkeqSSG3l9OgRshJIa+aY7jux4cZP8lb7JqaRQv2a9eGLs4i/bExrA+QDazdt9OFnRbbZFWT4R1+PqRZmNj0TePWm5t8PJeh8alrul6Wdk8hdPtDuxiAc8A9xdnge0rks6008uaH1LLWE8ODo3HHqyPvWh01pzdRsXNSvDt+ylDWCQZEk7hvc94PHHGFcZ6lWzC6GeCOSJwwWOa3GPQvYSvuj34tJdELa8PEn4NkXKXV71r2Pmnep6hF29SVsjM4djhzHfVe08grHqWow6ZW+UztlcztGRYiDS7L84PlED4qnVTLoPUJqtc415ZmQOBPzopsGNx9IOB713uredIP2qt+1exyJSqlLWpRMZ4EIZNcE9wnrXnpmafqTS61OpbkMm63EJoIGhpmLDnBdztA9q1avV+mTytjlimrtcdoleWPjBPdvLeR7lr9LaVWkrN1Kyxs0z3OirCUb2wwxEsAaHcZzlffVem1PkXy6OJjJoZI2SOYA3tI5Dsw4DvIOMKN2Xuvxk1rW9E8aMJX/AAsk2963vk/b9Tr6lrWnaWxjrEhdJIN0cMW0vcPrckAD0krmVusdLmkayaGeBriB2jix7G5+vt5HuWv0vp8NqF+qXALE5ea8Bm8sRRQgMG0O8f3LP1TplV1CS7HFHHPWfGXOY0N3xvcGEOx6wQvXZfKHjRaS569DGGPiQu+FsTcuW98n7Fla4OAcCHBwyCCCCDyMYWvcvU6EJntStjjBwM8ue7GdrWjklczpaeSfSIA85MEstcEnnax3kj3ELhWyzXOozXsyhtCm6VhDnBjSyLAcASRy53f6ApZ5Gq4yjzlyNanA3fOux/LDbb9vL3Oi7rPT9xLKdt0QOO0PZj9pHxXZ07VtP1NjnVpDuZjtIpBtkZnuJHm9KyNfpbI2wskptia3aGB8QYBjGNucKnWPk+j9R1JKT2fJpnQb2xuDmNZO4xvZx5j5QWErLKWnOSaf5E1ePRlKUKoOMkm1t73rzOv1FrVOGK/pTmTGxLWaGubt2DtBkZ5z6+FxtA16hpNaxBYZM50tgzN7IMwBsa3nc4c8K0a9DAdK1WUxRmUVnAPLWlwwRjyu9cnpCCvLSvGWGKQtuEAyMa4gdmzjygorVY8ld19Ho2MeeOuz5OUG1tb49Ttx3YdR0mxcha9sc1a3tEmN3kh7OcEjw86q/SdqtSh1mzZlbFDG2oC53iSH4AHflXCyxkdK6xjWtYK1jDWANaMsceAOFRumNNh1KzK6yN9aoyKTsSTtlmfkNLx4gAH3r2/vq2vXF8THC8KWLfvhHa9Xz5f7nZPWmm9oWtrWXRg437og7HnDM/tXfpXqmoQierLvYThwIw5jvFrh4FfNnTNOtQOryVoQwtLWlrGtdGccOYQOCFUelpJa2sXKJcS18U7X+YyV34DserKk8S2qyMbHtSIPAxsmic6IuMoceL3tF5JwCSQA0EkkgAAd5JKr1rq7SoJDFXjntuBILoQAzj6pPJ9yxdX3pYalenESHXC8yYOCYo8eTn0kjPq9K3tHqaVplOGNs1U2HMa6xKZIi98hGSMk5wO4BZztnKx1wetc2RVY9VdCvuTl3uSXDl1bMVHqnS7krYHiWtK8hrBNt2OcTgN3DuPrAXe5VT6qrabNUFyJ8HyqKSNrjE9m+SN52kENOcjvC7Gg25Lul0ZpSTKGOhkJPLnROLNx9eAfalVsvEdU3t89jJxq/Ajk0ppN6afRnzpuvUtUsTV4I52vijdI4ytaAQHBnGCV1sqi9H/Sd77I/wDXBXrzLLFtlbX3peph2ljwxr3XDlpHIZr1KTUzpTY7AsCWSHeWs7MujYXnnOfDzLqSSxwxySyvayKNpe97yA1rR4klUev/AHxd9uufqHrtdW9v+Ch2YOz5TCZ8Z/qxnGceGcKOvIk4Tm+jZPfgwV1VUXpTSb/yYpustLY9zIYLMzW97xsYMecBxz7wF1NK1mnq7J3V2ytMGwStlaOC8EjDmkgrn9LzaW7Tq9eF0QtNDvlMZ2iV0mTlxzyQfBd2KCtAZTDFHGZXB8pjaG73AYy7HisqHbPU3JNPpojzI49TlVGtqS6t8/8AHqZkTKLcKsIiIBwnCIgHCg4UogKJ1f8AStD7NB+vcrgKGmAhwp1Q7vyIY859eFVeqq1ubU6L4a88rRWgDnRRvc0ETuJyQMK6LQohu2xtdUXOZa1jUKL6Pr6kAAAAcAcADwC0dZ+idW+yS/ct8rR1dsj9L1RrGuc91WVrWsGXOJHcAFt2L5HryKyh/wA6LfmvqcLov+y6n9qj/VhdXqKN0mi6kGjJayOQj/pjka8/ALndIQWYa2oiaGWIussLRKxzCQIwMjcFZZGNex7HtBY9rmPB7i1wwQtbHh3sdR9CxzrVDPdq46af4aKz0bJGaNuEEdpHbdI4eO2RrcH4FWg4+9UaTTta6euvt6dG+eo4EENaXkx5z2crG+Vx4EftWzJ1Rq9hnY09JmZYd5O8tlk2uPi1pYBn1lRU3qmHh2LiifLwpZdrvoacZceaWvc0taItdT14ouXCxQgJHduYRI73Bd7q36IP2qt95Wt0/oFmtM7UtR5tO3GKIu3ujLzlz5HDjcfh9231RFPNpRZFFJI/5TXdtjYXOwCcnDeVjGElVZOS+8ZyureVRVCW1DS3031Pvpf6Fo/nWP1rk6o+hbn+5W/XNX101HLFo9Jksb43tdPlsjS1wzK49x5TqWOWXSLccUckjzJXw2Npc44laSQAp9f02v8Ap/Q1FJPtHfTv/qYekvoaL7Ta/wDNbHUf0Jqf5kX65iw9LxTw6TGyaKSJ/b2TskaWuwX8HB5Wx1AyWTR9RjjjfI9zI9rI2lznYlaeAOUgmsbXoeWSX8R73Tv/AKmh0f8ARUn26f7mquVNPrXddu0brpGAy3NvZkBxkbJuAyQfDKs3SkM8OmSMmikiebk52yNc12DtwcHla2vaJckst1TTCflLS18kbTteXsGBJGTxnwI8fv1pVOVFctb10LCGTGvMvh3td7aT8mZPxN0T/Mu/pGfwL6Z0horHscJLmWPZIAZW4JaQ4A4b3LRj6p1eAdlb0mSSZvBc1s0RPrbscM+pb+mazreoXIg/S3wUS2TfK5sgIcBlvMmPg3xWcfhZNJR4+zIrV2lXFylPh/3Lib+u/Q2rfZn/AHhcvoz+w3/tp/VMXfu1xbp26xwO3hfGCR3Ejg+xUbTr+sdPSWa0lCSQSPBLC2QAvaNu+N7GkEHj+Szvl4d8bHy1oiw4PIw7KIP5tp/4L1c/sd77LY/VuVU6J+dq35lT/wCasMVixd0h08kDopp6UznQ4dua5zHANw7BXD6OrW679U7evNDvZVDTKwsztD8gZXtnzXVyXLj9Dyj5MPIhLntfUto/aqLon96bX52p/wDmr15lStHqXY+pLMz61hkJdqJEj43NYdz/ACcE+fwXuUm5168zDs6UVVem/wDhHWjHCfTJCDsMM0eR5w9riB7FuxdI6FLHFK2a2WyMY9pbIwgtcNwI8hdbWNMj1Wo6BzgyVju0ryEZ2PAxyO/B7j/JVirf6k0BvySxRfPXYT2WGvcAPNHLGDx6CFDbXCu5ytjtP8jcx7rbsWNWPPuyjva3ra58Dqfibon+bc9faM/gXa07T6+m1mVIHSOja+R4MrtziXncckAKtnqfXLAcylosnakENLmzPGfa1jfirXC6V0UTpW7JHMYXt+q4gEhbFHgt7qX5FfmvLUVHIltPptP6FH6RcG6rca7guqygZ87Zmkq+cfcqJqen6no+qO1KjG98LpHzMcxhkDDJ8+ORrecHnH8ltjX+pNSb8moab2U0jdrrBEgZFngvzIAB8T6Fr49qoTqmntMsM7GeZJZNTXdaW9tLXuadVzXdYuLSCPl1wZHccQvBV5kjjlY+ORrXse0te1wy1wPBBBVHo6Zb0/qOjH2diSKJ2X2Ozd2bnPru3O3Yx3k+Ks2s3NVpQV5KFU2Hdt/TjaXhsQaf8LSHcnHd5lliy7kJua6kXaUVbdVGqW/lWnvXmci/0jES6bTJnRSDLmQyElme/DH53D0clfXTGr3LEtjTrrjJJCwvikf/AFmGO2PY895I4wsTurL7mFkWjziyRhpPbOaHefZ2YPxWfprSLteWzqV9hjnsNLYo3Y3ta529z344BJ8FhDuO5Oja8+eia3xVizWa1vh3eTf5Fo4U8KFKtTmxwnCIgCJwnCAInCcICMKU4ThAFGFPCcICMIp4ThARymCp4ThARhMKeE4QEYUpwnCAjCKeE4QEJhTwnCAKMFTwnCAjCYU8JwgITCnhOEAUYU8JwgCjCnhOEBGCmFPCcIeaITBU8JwvNHpGD6UwVPCcL0EYRTwnCAInCcIAicJwgP/Z;" parent="1" vertex="1">
          <mxGeometry x="669.39" y="280" width="113.48" height="60" as="geometry" />
        </mxCell>
        <mxCell id="GyxzSY54GK3ofzCGlce7-49" style="edgeStyle=orthogonalEdgeStyle;rounded=0;orthogonalLoop=1;jettySize=auto;html=1;" parent="1" source="GyxzSY54GK3ofzCGlce7-28" target="GyxzSY54GK3ofzCGlce7-27" edge="1">
          <mxGeometry relative="1" as="geometry">
            <Array as="points" />
          </mxGeometry>
        </mxCell>
        <mxCell id="GyxzSY54GK3ofzCGlce7-30" style="edgeStyle=orthogonalEdgeStyle;rounded=0;orthogonalLoop=1;jettySize=auto;html=1;" parent="1" source="GyxzSY54GK3ofzCGlce7-16" target="GyxzSY54GK3ofzCGlce7-2" edge="1">
          <mxGeometry relative="1" as="geometry" />
        </mxCell>
        <mxCell id="GyxzSY54GK3ofzCGlce7-31" value="Raw data" style="edgeStyle=orthogonalEdgeStyle;rounded=0;orthogonalLoop=1;jettySize=auto;html=1;entryX=0.615;entryY=0.137;entryDx=0;entryDy=0;entryPerimeter=0;" parent="1" source="GyxzSY54GK3ofzCGlce7-20" target="GyxzSY54GK3ofzCGlce7-2" edge="1">
          <mxGeometry relative="1" as="geometry" />
        </mxCell>
        <mxCell id="GyxzSY54GK3ofzCGlce7-47" style="edgeStyle=orthogonalEdgeStyle;rounded=0;orthogonalLoop=1;jettySize=auto;html=1;entryX=0;entryY=0.5;entryDx=0;entryDy=0;exitX=1;exitY=0.5;exitDx=0;exitDy=0;startArrow=classic;startFill=1;" parent="1" source="GyxzSY54GK3ofzCGlce7-41" target="GyxzSY54GK3ofzCGlce7-2" edge="1">
          <mxGeometry relative="1" as="geometry" />
        </mxCell>
        <mxCell id="GyxzSY54GK3ofzCGlce7-41" value="Stream jobs" style="image;html=1;image=img/lib/clip_art/computers/Software_128x128.png" parent="1" vertex="1">
          <mxGeometry x="100" y="480" width="70" height="50" as="geometry" />
        </mxCell>
        <mxCell id="GyxzSY54GK3ofzCGlce7-52" style="edgeStyle=orthogonalEdgeStyle;rounded=0;orthogonalLoop=1;jettySize=auto;html=1;startArrow=classic;startFill=1;" parent="1" source="GyxzSY54GK3ofzCGlce7-51" target="GyxzSY54GK3ofzCGlce7-3" edge="1">
          <mxGeometry relative="1" as="geometry" />
        </mxCell>
        <mxCell id="GyxzSY54GK3ofzCGlce7-51" value="Batch jobs" style="image;html=1;image=img/lib/clip_art/computers/Software_128x128.png" parent="1" vertex="1">
          <mxGeometry x="619.39" y="472.59" width="50" height="64.81" as="geometry" />
        </mxCell>
        <mxCell id="GyxzSY54GK3ofzCGlce7-53" style="edgeStyle=orthogonalEdgeStyle;rounded=0;orthogonalLoop=1;jettySize=auto;html=1;" parent="1" source="GyxzSY54GK3ofzCGlce7-17" target="GyxzSY54GK3ofzCGlce7-3" edge="1">
          <mxGeometry relative="1" as="geometry" />
        </mxCell>
        <mxCell id="GyxzSY54GK3ofzCGlce7-55" style="edgeStyle=orthogonalEdgeStyle;rounded=0;orthogonalLoop=1;jettySize=auto;html=1;startArrow=classic;startFill=1;entryX=0;entryY=0.5;entryDx=0;entryDy=0;" parent="1" source="GyxzSY54GK3ofzCGlce7-54" target="GyxzSY54GK3ofzCGlce7-16" edge="1">
          <mxGeometry relative="1" as="geometry">
            <Array as="points">
              <mxPoint x="169" y="880" />
              <mxPoint x="170" y="700" />
            </Array>
          </mxGeometry>
        </mxCell>
        <mxCell id="GyxzSY54GK3ofzCGlce7-54" value="Models repository" style="shape=image;verticalLabelPosition=bottom;labelBackgroundColor=default;verticalAlign=top;aspect=fixed;imageAspect=0;image=data:image/jpeg,/9j/4AAQSkZJRgABAQAAAQABAAD//gAfQ29tcHJlc3NlZCBieSBqcGVnLXJlY29tcHJlc3P/2wCEABISEhITEhQWFhQcHhseHCkmIiImKT4sMCwwLD5eO0U7O0U7XlNlUk1SZVOWdmhodpatkYqRrdK8vNL/+/////8BEhISEhMSFBYWFBweGx4cKSYiIiYpPiwwLDAsPl47RTs7RTteU2VSTVJlU5Z2aGh2lq2RipGt0ry80v/7///////CABEIAmQEIgMBIgACEQEDEQH/xAAzAAEAAgMBAQAAAAAAAAAAAAAABQYCBAcDAQEBAAMBAQEAAAAAAAAAAAAAAAMEBQIBBv/aAAwDAQACEAMQAAAAvAAAAAAAAAAAAAAAAAAAAAAAAAAAAAAAAAAAAAAAAAAAAAAAAAAAAAAAAAAAAAAAAAAAAAAAAAAAAAAAAAAAAAAAAAAAAAAAAAAAAAAAAAAAAAAAAAAAAAAAAAAAAAAAAAAAAAAAAAAAAAAAAAAAAAAAAAAAAAAAAAAAAAAAAAAAAAAAAAAAAAAAAAAAAAAAAAAAAAAAAAAAAAAAAAAAAAAAAAAAAAAAAAAAAAAAAAAAAAAAAAAAAAAAAAAAAAAAAAAAAAAAAAAAAAAAAAAAAAAAAAAAAAAAAAAAAAAAAAAAAAAAAAAAAAAAAAAAAAAAAAAAAAAAAAAAAAAAAAAAAAAAAAAAAAAAAAAAAAAAAAAAAAAAAAAAAAAAAAAAAAAAAAAAAAAAAAAAAAAAAAAAAAAAAAAAAAAAAAAAAAAAAAAAAAAAAAAAAAAAAAAAAAAAAAAAAAAAAAAAAAAAAAAAAAAAAAAAAAAAAAAAAAAAAAAAAAAAAAAAAAAAAAAAAAAAAAAAAAAAAAAAAAAAAAAAAAAAAAAAAAAAAAAAAAAAAAAAAAAAAAAAAAAAAAAAAAAAAAAAAAAAAAAAAAAAAAAAAAAAAAAAAAAAAAAAAAAAAAAAAAAAAAAAAAAAAAAAAAAAAAAAAAAAAAAAAAAAAAAAAAAAAAAAAAAAAAAAAAAAAAAAAAAAAAAAAAAAAAAAAAAAAAAAAAAAAAAAAAAAAAAAAAAAAAAAAAAAAAAAAAAAAAAAAAAAAAAAAAAAAAAAAAAAAAAAAAAAAAAAAAAAAAAAAAAAAAAAAAAAAAAAAAAAAAAAAAAAAAAAAAAAAAAAAAAAAAAAAAAAAAAAAAAAAAAAAAAAAAAAAAAAAAAAAAAAAAAAAAAAAAAAAAAAAAAAAAAAAAAAAADxrksFm8aX8tUrx7UG5w2NsVrgAAAAAAAAAAAAAAAAAAAAAAAAAAAAAAAAAAAAAAAAAAAAAAAAAAAAAAAAAAAAADDOF7jhtQ2MF7T8zVu064lS6ENgAAAAAAAAAAAAAAAAAAAAAAAAAAAAAAAAAAAAAAAAAAAAAAAAAAAAAAAAAAc9OhOZX0kAAKnbKNcoeUlG2S1Smhk7gBAw1qld1cscNgI5QAAAAAAAAAAAAAAAAAAAAAAAAAAAAAAAAAAAAAAAAAAAAAAAAAAAAAAAHHuw8eI/qfLOpk8avvm0rqerM0qUi7lBcadNFkV1Tv2Jr+8FmpR+eG1gWSa0t3J2wimAAAAAAAAAAAAAAAAAAAAAAAAAAAAAAAAAAAAAAAAAAAAAAAAFfLAr80eyuQZf1FtZvmkbqk6p0BU7SZgce7Dx4j+p8s6mT0RL6/cVJW1fzak2tW1TJOagsVLK158Sbevtw9HRrOWO9r4duyMT6Iebz0RWvNUnUJvedboitAESlglmtsxzD5579RSWCVa+xHMHnpFJYJVr+PHe81PR77jnsAAAAAAAAAAAAAAAAAAAAAAAAAAAAAAAAABxzsfHDRnoHZNZ0LYOa+u7GnRqB4TRCulaRQpuHwO35Vqyjj3YePEf1PlnUyeA+fdX3mn+Zt/O2WZ0t3H3gjmVqy0u1S1ZuEtNujKnjl7XhAfPmj85im8+e4H32pzzvD2h9SvqWMQWqP47ult/PWSagJ/L2ETKUvrjXGpj2GdrVlytpGSdONLa1bPfzJbR3/mVtQchuO4voisAAAAAAAAAAAAAAAAAAAAAAAAAAAAAAAAAAOOdj44aPROd9YJkEDyzr3ITPs3IOzgHO6leKOXi80i7jj3YePEf1PlnUyeAiZauzVoPLHd1ca35GJ9EB50W21LRyl2p9446Qs1WoJNSegrbPSyxyUdwCoaNlrOth3j2jJPM2KtFTkHqY01ZKvZKOjEVz1+X83Y07hT+epC3Ui71bsdUpCPtU9m6RExSvhWuAAAAAAAAAAAAAAAAAAAAAAAAAAAAAAAAAAAAOOdj44aPWOT9YJkEZyHr3ITa7Pxjs4BSKLeqKXq70i7jj3YePEf1PlnUyeAqNuotyh5zMNZrNOYGVtgQNfk4zXwpO1wU7Q0lbskN5HE22oz09KSMKO3mfHsRWd/S1sO1SXl65mxCVy11TRypHdifLrjCwQt1imyol8pkcupbaltWaers61m9S2RkboAAAAAAAAAAAAAAAAAAAAAAAAAAAAAAAAAAAADjnY+OGj1jk/WCZBGch69yE2uz8Y7OAUii3qil6u9Iu4492HjxH9T5Z1MngatLtFX0shcqfeue8hn6g1veah4vu389bZDDPF+geXq86hZjKFlq7Vf0vl/Pt0HGhOedkhnyFDU06beaNoZQ2blGbmscsbfVa0wEsEANXG2bnEzGXsBWuAAAAAAAAAAAAAAAAAAAAAAAAAAAAAAAAAAAAAKLehz65b4A1qN0IUS9gBXq/wBBFdsQKPeBz25SAArsHv6Gxg7txrdko6IVbrU23vNd9Z1NAEFkBhmeROpYU0EDJbjzoIpgFZsySGsykk64CGy0d51zWMrKnrY5Fa2AAAAAAAAAAAAAAAAAAAAAAAAAAAAAAAAAAAAAAAAAAAAAAAYRvccrpR8HYq+R7aOVYpbDPG3w4kAAAAAAAAAAAAAAAAAAAAAAAAAAAAAAAAAAAAAAAAAAAAAAAAAAAAAAAAAAAAAAjKpa4nQyopK7U9eDtez70dEK1wAAAAAAAAAAAAAAAAAAAAAAAAAAAAAAAAAAAAAAAAAAAAAAAAAAAAAAAAAAAAAAAAAAAAAAAAAAAAAAAAAAAAAAAAAAAAAAAAAAAAAAAAAAAAAAAAAAAAAAAAAAAAAAAAAAAAAAAAAAAAAAAAAAAAAAAAAAAAAAAAAAAAAAAAAAAAAAAAAAAAAAAAAAAAAAAAAAAAAAAAAAAAAAAAAAAAAAAAAAAAAAAAAAAAAAAAAAAAAAAAAAAAAAAAAAAAAAAAAAAAAAAAAAAAAAAAAAAAAAAAAAAAAAAAAAAAAAAAAAAAAAAAAAAAAAAAAAAAAAAAAAAAAAAAAAAAAAAAAAAAAAAAAAAAAAAAAAAAAAAAAAAAAAAAAAAAAAAAAAAAAAAAAAAAAAAAAAAAAAAAAAAAAAAAAAAAAAAAAAAAAAAAAAAAAAAAAAAAAAAAAAAAAAAAAAAAAAAAAAAAAAAAAAAAAAAAAAAAAAAAAAAAAAAAAAAAAAAAAAAAAAAAAAAAAAAAAAAAAAAAAAAAAAAAAAAAAAAAAAAAAAAAAAAAAAAAAAAAAAAAAAAAAAAAAAAAAAAAAAAAAAAAAAAAAAAAAAAAAAAAAAAAAAAAAAAAAAAAAAAAAAAAAAAAAAAAAAAAAAAAAAAAAAAAAAAAAAAAAAAAAAAAAAAAAAAAAAAAAAAAAAAAAAAAAAAAAAAAAAAAAAAAAAAAAAAAAAAAAAAAAAAAAAAAAAAAAAAAAAAAAAAAAAAAAAAAAAAAAAAAAAAAAAAAAAAAAAAAAAAAAAAAAAAAAAAAAAAAAAAAAAAAAAAAAAAAAAAAAAAAAAAAAAAAAAAAAAAAAAAAAAAAAAAAAAAAAAAAAAAAAAAAAAAAAAAAAAAAAAAAAAAAAAAAAAAAAAAAAAAAAAAAAAAAAAAAAAAAAAAAAAAAAAAAAAAAAAAAAAAAAAAAAAAAAAAAAAAAAAAAAAAAAAAAAAAAAAD//EAEAQAAIBAQQECgYJBAMBAAAAAAECAwQABRARBhIhURMgIjE1QVJicXMVNFNgkbEUFiMyM2FygaFCVHCSMIKw0f/aAAgBAQABPwD/ANcB5EQZuwXxOVvplL7eP/YWWogc5LMh8GH+AZpo4ELyNkLVN6zykiLkL/NmZmJJJJxokMdLCp59X3/dlRSzHIAZk2rKt6qUsdij7oxSnnk2pE5G8C0dFUcLGrxOAWGZysMh7/3xOUiWIf18+NDdiIokmUM+49Vssv8AAN6ya9Y46kAGF1wCapDHmQZ+/ddpJelPW1MUboFSUgci31qvftxf6WuStmrLrhnmI4Vy3GnfhJpH7Tk4XLHlBI+9uLe9Q6NEiORsJOVvpVT7eT/Y2ul5pahi8rkKnWffS9ekq3znw0a6GpvF+LVycHTTPuQ43empRwjeM/jxb0fXrJO7kuFyplDK/abL30vXpKt858NGuhqbxfCrn+jwPKBmRlb03J7Fbem5PYrapvOSohMRQKDit8uqqohXIC3puT2K29NyexW1NK00CSMoBbqsSACTaVzJI772Jwu+PUo4RvGfx99L16SrfOfDRroam8XwvlsqVRvk/wCBFLsqjnJytGgRFQcygC1dJwdLM3dy+OCKXdVHOSBZFCqqjmAA95JdJ7sglkicS6yEqeTYaYXUOqa0FRFUU8dQhIR1DDO1dpPd9KSkWc72fTKq/opYrQ6Yvn9vSf6G1BetDeKfYS8vrQ7Gwrbxo6Bc6iYDcvWbTaZZer0n7ubDTGr66WG1JpdSSkJUwGK0UsU8ayRSK6EbCOJevSVb5z4aNdDU3i+E9NDUBRKueVvRVF7P+Tb0VRez/k2rUjjqZEjGSrhdlLHUyScIM1VbeiqL2f8AJt6KovZ/ybJd1JG6use0YXzJq06J2mwu2PXrIvyOfEkljiXWdgBaS9EH3EJsb0n6kSy3q/8AVGDaKvgl2Z6p3Him+aTsyW9M0m6T4WpqmOpQvHnkDltxJyGZsb4pB1SW9MUnf+FqeojqULx55A5bcTkLG+KTv/C3pik7/wALcMWhWWONmz2gcxtDVPMx+wYKCQSSNhFoauOanabmC55jwtTzCeFZQCA3V7j3l0hWec+FXfMslBSUMLFY0iAfvHiRSyQSLJG5V1OYIsNKI/RAmIBqQdTUtUVE1TK0szl3Y7SeJc18TXZONpMD7JEtG6SIsiEFWGYIxvXpKt858NGuhqbxfiE5WlcySyP2mJwuaPKB37TcW+nzqETsrhciZyTPuUDGrq1p1yG1zzC0kjysWc5niQU8k7ZKPE2gi4GNU1i2XWeJULqTzLucjC5TnBKO/jetTwUPBqeU/wAsbkbkTLuION61HA0xUHlPswo6c1FQidXO3hYAAAC1F+HUefJaCJ9SFFX7OZVLn9P/ANtd3qcX/b5+495dIVnnPhS0s9ZOkMKaztal0QpVQGqmd33LafRG7XT7F5Uted2VN2T8FN4q45mxum5am9HJTkRLzyG0Wid2KmTmVzau0QQoWopjr9h7SRvE7I6lWU5EHDRSrM12mEnbC+N69JVvnPho10NTeL8SskEdLO3cI+ON3pqUcI3rn8eLXScJVzN3svhhdEerS63bYnCeUQxM56rO7SOzMdpsqs7BVBJNoLtUDObadwtWQQx0shSNQdlqWgaXJpNifybIiRqFUAAWrL0SHNIcmff1C12178MY5nJDnYTvxvFdWtmH55/HC5D+OPDBmVFLMcgBmbVU5qJ3kPMTs8MblfKeRd6Y3hUfSKhiDyV2LhdNPwUBkI5T/LAADqsAAMhYAAZD3HvLpCs858NEqNY6N6ojlytjpLSrPdUr9cJD4Ipd1Qc7EAWoqaOjpIaeMZBFGf5nHS+mWKuimA/Fjw0MciSs8FxvXpKt858NGuhqbxfiXw+rShe04wRS7qo6yBZRqqFHUOJK4jjd+ypNicyScKWPgqeFNyjC9Jc2SPdtOF3U4SPhSOU3ywKhhkQDjeNL9Gn5P3G2rYEggg7RanlE0EUnaUE4XwuVXnvQHC5D9tMN6YXvVaqCBedtrYJSlqSWc9RAGF1tq1sX55jC8qngKcgHlPsGFHAaidI+rr8BYAKABsA9y7y6QrPOfDRzoamxvzoauPcwovXKbzk+fE0z56HwfDQj1it8sY3r0lW+c+GjXQ1N4vxL7fOSFNyk4XemvWQjcc/hxb0k1KOTvZLhTpwk8Sb2AxrjnVSWAzIFlUKAo5hs4t8oDTK3Wr4XSc6NPyJwvtMpIX3qRhcxyqj5ZtLIsUbO3MoztPK08ryNzsbRRtLIka87HK0sCpQyQqNgjwpm1KiFtzjC8qjh6kgHkpsGF003BwmYja/y9zLy6QrPOfDR7oekxvzoauPcwovXKXzk+fE0056D9DYaEesVvljG9ekq3znw0a6GpvF+Jeb69ZJ3chhcqZzyP2U4t9ybIY/E4XTHr1YPYUnGvBFVJYHIg2VgyhhzEZ8W+XAp0XrZ8LqXKiT8yThfa5wxNubC62yrY/zBtfFTtEC+LYXPS7DOw/JbEAgjfZ1KuynqJFhsINqyq4Kj4QHlOAF/fCkgNROkY5uvwsoCqABkAMh7mXl0hWec+Gj3Q9JjfnQ1ce5hReuUvnJ8+Jppz0H6Gw0I9YrfLGN69JVvnPho10NTeL4nIWlcySyP2mJwuaPKnd+0/FvaTXq2HZAGFyR8maTeQMb0i2pL+xwu6VnhKEHk8xweREy1mAzOQwJCgknIC14VX0mfNfuLsWyqXYKBmSchaGMRRRx9lQML2XWoz3WBwpZhBOkhGernZ3aR2dudiSbU8LTzJGvWbRosaKi8yjIYV6alZOO9hU1JnWFeqNAMLopuDhMrDa/y9zby6QrPOfDR7oekxvzoauPcwovXKXzk+fE0056D9DYaEesVvljG9ekq3znw0a6GpvF8ayQR0s7dwj440CcHSQju5/Hizvwk8r72JwuyPUo497ZnGaJZo2RusWgu1ixM3MOoWVVVQFAAFquvipRl95+zZaqSerhkmfYJB4AZ2kvOjjH4msdy2rLylqeSvITC6aPWb6Q42D7mNeuvRzju5/DiXRS6kZnYbW5sb4TVq8+0oxpIDUTpGOYnb4WUBVAAyAGQ9zby6QrPOfDR7oekxvzoauPcwovXKXzk+fE0056D9DYaEesVvljG9ekq3znw0a6GpvF8b4fVpQvbfBFLuqjrIFlGqoG4cSrfgqaZ9ynBRmQN5tGgSNEHUoHFvGvlhPBRoV75sSSSSSSeJRXY8pDzAqm7rNlUKAAMgOYYzLrQyrvQjGlgNROkY/c/lZVVFCqMgBkMb7T8B/EY3RT6kJmI2v8AL3OrNE6yapnmFRCA7lrfU6t/uoLXXSPQ0MNO7BmTrGN4UjVdBUQI4DSLkCbfU6t/uoLQaI10M8UhngIRweJf1yz3oYDFKiCMH79vqdW/3UFrhuae6pJzLLG4cDGt0UrZ6uomWeHJ3LW+p1b/AHUFrpo5LvoIqV3VmQttXG+35cKblJwu6PXrIRuOfw4tZA1RAY1YLmRb0JJ7ZbQ3O0cqO0oIBB4zxpIuq6hhuNpbnpn2oWSxuRuqcfCyXIv9c5/YWgoaaDIom3edp4xuaozOUkdvQtT247XfQmkDlyC54lfSmqhVEIDBs9tvQtT247Lc0+sNaRMrKoVQoGQAyHvHeUgkrJdy8nC5UzmlfcuX+Aq2qWmhLZ8s7FFiSSScLniKUxftt7/u6xoztzKCTYXxSEbS4/a0t9JllFGSe9aaeSdy8jZnCCFp5UjXrNo0WNFReZRkPf8AvaXUpCOtyBxI43lcIikk2oaFaVMztkPOf8AV9C9XqFZANXqIsbnq96GwuerPY+Norl9rL+y2hp4YFyjQD/2VP//EAC4RAAIBAwIEBQMEAwAAAAAAAAECAwAEERJRECExYRMUQVBxIlJgI0KQkSAygf/aAAgBAgEBPwD+YWOF5enTehZD1c1PAIgCGzk/gEaGR1XelUKAAMAVJdhThBnvUszS4yAMfgFmuXY7CrhtMTf1xjtWdA2oDNSx+G+nOffACxAHU15Wb7atomjVtXUmrlHkVQo9a8rN9tEEEikXSirsKmbVK57++RMFkVj0BrzkWzUp1KDuKkuY420kHNG8j9A1RDXKg7050qx2HADNCCU+lNDIvVePgTfYaIIJBGDw8GX7DRBBIIweHgy/Ya0NgnairDOR0OPbwMkDc0BgVM2qVz34Wi5kJ2FXTaYT35UASQBUcSxjv6mvMJqCjJycVLOF5LzNeBKyNIR34Icop3Aq4GJnq2j1vk9F4XIxM1W0euQbLzqeTw4yfU8hQbAI3p5S4Ix659vt11TJ/dMdKsdgeNmuEZtzV63+i1bDMnwKuWIULvxt3LxAnr0NSLpdhsTUBzCnxV0P1vkCokEUYH/TUEvi6zs1Xg+tTuKt49EY3PM1dSa5MDovuNmuXY7CrlsQt35cbddMKfGaumzMewAq2bEnyKulyobbjAhjiAPyadtTs25NWhzD8E0YtU4c9AtXcmldA6mrI/U47VLF4jx7AnNTyeHGT69B7lZriMnc1etyRe+eAGSBuaAwKdtTs25oHByK/UncDNR26RqdyOtR20cZz1Perm4GCiH5PCyP0OO9EhQSegqRzI5Y1anEw7g8LqTXJgdF9ygXTEg7VdnMuNhwBKkEdRRuZiMav8BcTD99NNK4wXPGOV486fWnuJHXSTy4KxVgw6ivNTbj3FUdwSqk1FauWBcYFEgAk9BUja3Ztz+AW0kSR4LgEmjcQj94qa4Mn0jkv86P/8QANBEAAgEDAgMGAgkFAAAAAAAAAQIDAAQREjEQIVETFEFQYZEFcSIjQlJTYGKQsSRDgaHB/9oACAEDAQE/AP3hZriOHfmego37Z5Rira5aZiCgGBv+QJpBFGz9KZizFick1FYswy7afSoLdYdWDnP5Av2wiL1NWya5kB234y3ixuyaCcVDL2yasY5+eMwVSx2ArvsH3j7VdzLK66dgKtJI4nZnPhgV32D7x9qDBlDDYjNO2t2bqSat10wxj0z7+eTIzxOq7kV3GbqtMNJI6HFR2ssq6lxihYzeJWpzogcjwXApF1Mq9SBwJCgknApr+2U415+QqO8t5DgSc+h5ce8wfiClYMAQcg8O8wfiClYMAQcg8O8wfiCjKgKjJ57cjSyI2MHcZHy8vZtKs3QE8LddMMY9OF82IgvVqs11Tr6ZNMwVSxOABk1c3Mlw/wCnPJa7hMImkbC4UnFWtg0mHkyqf7NC4hR0iXbb0HBxpdh0JFWhzbpV5Loj0jduFmcwL6EiruXs4iBu3KreLtZQvhuaKZZD0zUUAjYMDspHl922mB/XlSLqZV6kDjftmRF6CrBecjfIV8Rcrb4+8wFfDYg0jufsbcblBHMwG24qJtcSMdyoq5GJ5PnVmf6fnsCamkM0pb/AFXEPYmMdV5/OrA/QcdGq6l7SU9ByFWcWiPUd28xv2wiL1OatF1Tp6c+Ny2qeQ+uParJdMAPUk18RQtb5H2WBr4ZKFkdD9ofxRIG/C5cSTMRtsKiXRGi9FFXoxOfUChNptzGN2bn8qsotT6zsv81fryjb1IqGbsllA3YACreLtZQvhufMr5szAdFqwX6Tt0GODMFUsfAZonJzUa6I0XoBTAMCCMg0Egs4yQP+k1LcvKwOwB5CpbqWQYJAHQVaWxJEjjkNhwvx9Yh6rQBYgDc1FGIo1UVejMBPQg8LOLRHqO7eZXDa5pD61YriEnq3BlDqVOxFCzgBB0n34kA0bSAnOj2pLeFDlUGffjLAk2nXnlUdrFGwYA5HB0DqVbY13KD9Xv5i8saEBmAqe8QKRGck0ASQBUSdnGi9B+QLuKZ5SQhIAAFLbTt/bNW9oIjqbBb99H//2Q==;" parent="1" vertex="1">
          <mxGeometry x="110" y="870" width="138.3" height="80" as="geometry" />
        </mxCell>
        <mxCell id="GyxzSY54GK3ofzCGlce7-59" style="edgeStyle=orthogonalEdgeStyle;rounded=0;orthogonalLoop=1;jettySize=auto;html=1;" parent="1" source="GyxzSY54GK3ofzCGlce7-58" target="GyxzSY54GK3ofzCGlce7-3" edge="1">
          <mxGeometry relative="1" as="geometry" />
        </mxCell>
        <mxCell id="GyxzSY54GK3ofzCGlce7-60" style="edgeStyle=orthogonalEdgeStyle;rounded=0;orthogonalLoop=1;jettySize=auto;html=1;" parent="1" source="GyxzSY54GK3ofzCGlce7-58" target="GyxzSY54GK3ofzCGlce7-54" edge="1">
          <mxGeometry relative="1" as="geometry" />
        </mxCell>
        <mxCell id="GyxzSY54GK3ofzCGlce7-58" value="ML analytics" style="shape=image;verticalLabelPosition=bottom;labelBackgroundColor=default;verticalAlign=top;aspect=fixed;imageAspect=0;editableCssRules=.*;image=data:image/svg+xml,PHN2ZyB4bWxuczp4bGluaz0iaHR0cDovL3d3dy53My5vcmcvMTk5OS94bGluayIgeG1sbnM9Imh0dHA6Ly93d3cudzMub3JnLzIwMDAvc3ZnIiBoZWlnaHQ9IjQ5Ljk5Mzg5NjQ4NDM3NSIgd2lkdGg9IjE4Ny45OTk2MzM3ODkwNjI1IiB2aWV3Qm94PSIwLjM1OTM3NSAwLjMxMDU0Njg3NSAxODcuOTk5NjMzNzg5MDYyNSA0OS45OTM4OTY0ODQzNzUiPjxnIHRyYW5zZm9ybT0idHJhbnNsYXRlKC0xNjM4IC0yMDkzKSI+PGcgZmlsbD0iIzRlNGU0ZSI+PHVzZSB5PSIyMTA2LjIzIiB4PSIxNjg4Ljg3IiB4bGluazpocmVmPSIjQSIvPjx1c2UgeT0iMjEwNi4xOSIgeD0iMTcwNS4zOCIgeGxpbms6aHJlZj0iI0IiLz48dXNlIHk9IjIxMDUuNjciIHg9IjE3MzAuMTgiIHhsaW5rOmhyZWY9IiNDIi8+PHVzZSB5PSIyMTA2LjIxIiB4PSIxNzUyLjk0IiB4bGluazpocmVmPSIjRCIvPjx1c2UgeT0iMjEwMC4wNCIgeD0iMTc3NS44IiB4bGluazpocmVmPSIjRSIvPjx1c2UgeT0iMjEwNS43MSIgeD0iMTc5MS43NSIgeGxpbms6aHJlZj0iI0YiLz48dXNlIHk9IjIxMDUuNzIiIHg9IjE4MTUuNzciIHhsaW5rOmhyZWY9IiNHIi8+PC9nPjx1c2UgeT0iMjA5My4zMSIgeD0iMTY2OS4zIiBmaWxsPSIjNzY3Njc3IiB4bGluazpocmVmPSIjSCIvPjxnIGZpbGw9IiNmMzc3MjYiPjx1c2UgeT0iMjEyMy45OCIgeD0iMTYzOS43NCIgeGxpbms6aHJlZj0iI0kiLz48dXNlIHk9IjIwOTcuNDgiIHg9IjE2MzkuNzMiIHhsaW5rOmhyZWY9IiNKIi8+PC9nPjx1c2UgeT0iMjEzNS44MSIgeD0iMTYzOS44IiBmaWxsPSIjOTg5Nzk4IiB4bGluazpocmVmPSIjSyIvPjx1c2UgeT0iMjA5OC4wNiIgeD0iMTYzOC4zNiIgZmlsbD0iIzZmNzA3MCIgeGxpbms6aHJlZj0iI0wiLz48L2c+PGRlZnM+PHBhdGggZD0iTTUuNjI2IDE3LjkyOGMwIDUuMTQ2LS4zOTMgNi44MjYtMS40MzkgOC4wNjdDMy4wNDQgMjcuMDUgMS41NSAyNy42MzQgMCAyNy42M2wuMzkzIDMuMDYxYzIuNDAyLjAzMyA0LjczMS0uODM1IDYuNTMzLTIuNDM3IDEuODc1LTEuOTUzIDIuNTI5LTQuNjUzIDIuNTI5LTguNzk3VjBINS42MTd2MTcuOTU0bC4wMDktLjAyNnoiIGlkPSJBIi8+PHBhdGggZD0iTTE3Ljc0MSAxNS42MjNsLjE3NCA1Ljg1aC0zLjM1OGwtLjIxOC0zLjUxOWgtLjA4N2E3Ljk2IDcuOTYgMCAwIDEtMi45NTMgMi45NDhjLTEuMjI2LjctMi42MTYgMS4wNTgtNC4wMjUgMS4wMzdDMy45NiAyMS45MzkgMCAyMC4wNzQgMCAxMi41NDRWMGgzLjgzOHYxMS45MDJjMCA0LjA4MiAxLjIyMSA2LjgyNiA0LjcwMSA2LjgyNiAxLjA5Mi0uMDIgMi4xNTMtLjM2NSAzLjA1Mi0uOTkxczEuNTk0LTEuNTA1IDEuOTk5LTIuNTI4Yy4yMzMtLjYzOS4zNTEtMS4zMTYuMzQ5LTEuOTk3Vi4wMThoMy44Mzh2MTUuNjA1aC0uMDM1eiIgaWQ9IkIiLz48cGF0aCBkPSJNLjE3NCA3LjUzNkwwIC40OTloMy40NDVsLjE3NCAzLjY3N2guMDg3YTguMzEgOC4zMSAwIDAgMSAzLjE3MS0zLjEzN0E4LjIyIDguMjIgMCAwIDEgMTEuMi4wMDZjNS4wOTQgMCA4LjkzMiA0LjM5OCA4LjkzMiAxMC45MDggMCA3LjcxNS00LjYxNCAxMS41MjQtOS41OTUgMTEuNTI0YTcuMzMgNy4zMyAwIDAgMS0zLjY4Ny0uODE5IDcuNCA3LjQgMCAwIDEtMi44MDMtMi41NUgzLjk2djExLjY1NkguMTY2VjcuNTAxbC4wMDkuMDM1em0zLjc5NCA1LjcxOGE4Ljg3IDguODcgMCAwIDAgLjE3NCAxLjU5MiA1Ljk4IDUuOTggMCAwIDAgMi4wOTEgMy4yODUgNS44OSA1Ljg5IDAgMCAwIDMuNjU3IDEuMjgxYzQuMDU2IDAgNi40MDItMy4zNjkgNi40MDItOC4yODYgMC00LjMwMi0yLjIyNC03Ljk3OS02LjI3MS03Ljk3OS0xLjM2MS4wMzgtMi42Ny41MzUtMy43MiAxLjQxUzQuNTI0IDYuNjM1IDQuMjMgNy45NzZjLS4xNTQuNTE3LS4yNDIgMS4wNTItLjI2MiAxLjU5MnYzLjY3Ny4wMDl6IiBpZD0iQyIvPjxwYXRoIGQ9Ik00LjE2MSAwbDQuNjE0IDEyLjY3NiAxLjM1MiA0LjM5OGguMDg3bDEuMzUyLTQuNDc4TDE1Ljc1My4wMDloNC4wNTZMMTQuMDYgMTUuMzA2QzExLjMxMyAyMi42NiA5LjQ0NiAyNi40MzQgNi44MyAyOC43MzljLTEuMzIyIDEuMjQtMi45NDMgMi4xMTEtNC43MDEgMi41MjVsLS45NTktMy4yODFjMS4yMy0uNDEzIDIuMzctMS4wNjEgMy4zNTgtMS45MDkgMS4zOTYtMS4xNzYgMi41MDEtMi42NjQgMy4yMjctNC4zNDZhMi44MyAyLjgzIDAgMCAwIC4zMDUtLjkzMmMtLjAzNC0uMzUyLS4xMjMtLjY5Ni0uMjYyLTEuMDIxTDAgLjAwOWg0LjE4N0w0LjE2MSAweiIgaWQ9IkQiLz48cGF0aCBkPSJNNy4wMjIgMHY2LjE1OGg1LjQ4NnYyLjk3M0g3LjAyMlYyMC42OWMwIDIuNjM5Ljc0MSA0LjE3IDIuODc4IDQuMTcuNzUuMDEyIDEuNDk4LS4wNzcgMi4yMjQtLjI2NGwuMTc0IDIuOTI5Yy0xLjA5MS4zODgtMi4yNDUuNTY3LTMuNDAyLjUyOC0uNzY3LjA0Ny0xLjUzNS0uMDc0LTIuMjUxLS4zNTdzLTEuMzYxLS43MTktMS44OTMtMS4yNzljLTEuMDktMS4xNTItMS40ODMtMy4wNjEtMS40ODMtNS41ODZ2LTExLjdIMFY2LjE1OGgzLjI3MVYxLjAxMkw3LjAyMiAweiIgaWQ9IkUiLz48cGF0aCBkPSJNMy42MjkgMTEuOTI4Yy4wODcgNS4yNzggMy40MDIgNy40NTEgNy4yMzEgNy40NTEgMi4wMDIuMDYzIDMuOTkzLS4zMTUgNS44MzUtMS4xMDhsLjY1NCAyLjc4OWMtMi4yMDcuOTM1LTQuNTg1IDEuMzg3LTYuOTc4IDEuMzI4QzMuODgxIDIyLjM4OCAwIDE4LjA0MiAwIDExLjU2OFMzLjc1MSAwIDkuODkxIDBjNi44ODIgMCA4LjcyMiA2LjE1OCA4LjcyMiAxMC4xMDctLjAwNi42MDktLjA1IDEuMjE3LS4xMzEgMS44MjFIMy42NTVoLS4wMjZ6TTE0Ljg3MiA5LjE0Yy4wNDQtMi40ODEtMS4wMDMtNi4zNDItNS4zMTItNi4zNDItMy44ODEgMC01LjU3NCAzLjYzMy01Ljg3OSA2LjM0MkgxNC44OGgtLjAwOXoiIGlkPSJGIi8+PHBhdGggZD0iTS4xNzQgNy4xNzlMMCAuNDg0aDMuMzU4bC4xMzEgNC4yMTRoLjE3NEM0LjYyMyAxLjgxMyA2LjkzNCAwIDkuNDk5IDBjLjM2OC0uMDA1LjczNC4wMzkgMS4wOS4xMzJ2My42NzdjLS40My0uMDk0LS44NjktLjEzOS0xLjMwOC0uMTMyLTIuNzA0IDAtNC42MTQgMi4wODUtNS4xMzcgNS4wMDVhMTEuMTQgMTEuMTQgMCAwIDAtLjE3NCAxLjgyMXYxMS40MzZILjE3NFY3LjE3OXoiIGlkPSJHIi8+PHBhdGggZD0iTTUuODk0IDIuODQ0Yy4wMjUuNTg4LS4xMjMgMS4xNy0uNDI1IDEuNjcycy0uNzQ2LjkwNC0xLjI3NSAxLjE1Mi0xLjExOS4zMzMtMS42OTUuMjQzYTIuOTQgMi45NCAwIDAgMS0xLjU0My0uNzQ4IDIuOTggMi45OCAwIDAgMS0uODcxLTEuNDg2Yy0uMTM4LS41NzEtLjEwNS0xLjE3MS4wOTUtMS43MjRBMi45NyAyLjk3IDAgMCAxIDEuMjA4LjU3NCAyLjkzIDIuOTMgMCAwIDEgMi44MjMuMDAzYy43ODEtLjAzMyAxLjU0Mi4yNDcgMi4xMTguNzhzLjkxOCAxLjI3NC45NTIgMi4wNjF6IiBpZD0iSCIvPjxwYXRoIGQ9Ik0xOC4yNjUgNy4xMzRDMTAuNDE1IDcuMTM0IDMuNTU5IDQuMjU4IDAgMGMxLjMyNSAzLjgyIDMuNzk2IDcuMTMxIDcuMDY5IDkuNDczczcuMTg3IDMuNiAxMS4yIDMuNiA3LjkyNy0xLjI1OCAxMS4yLTMuNlMzNS4yMTMgMy44MiAzNi41MzggMGMtMy41NjcgNC4yNTgtMTAuNDIzIDcuMTM0LTE4LjI3MyA3LjEzNHoiIGlkPSJJIi8+PHBhdGggZD0iTTE4LjI3MyA1LjkzOWM3Ljg1IDAgMTQuNzA2IDIuODc3IDE4LjI2NSA3LjEzNC0xLjMyNS0zLjgyLTMuNzk2LTcuMTMxLTcuMDY5LTkuNDczUzIyLjI4MiAwIDE4LjI2OSAwcy03LjkyNyAxLjI1OC0xMS4yIDMuNlMxLjMyNSA5LjI1MyAwIDEzLjA3M2MzLjU2Ny00LjI0OSAxMC40MjMtNy4xMzQgMTguMjczLTcuMTM0eiIgaWQ9IkoiLz48cGF0aCBkPSJNNy40MjggMy41ODNhMy43NyAzLjc3IDAgMCAxLS41MzYgMi4xMDljLS4zODIuNjM0LS45NDEgMS4xMzktMS42MDggMS40NTJzLTEuNDEuNDItMi4xMzcuMzA2LTEuNDA0LS40NDItMS45NDUtLjk0NFMuMjc5IDUuMzUzLjEwNSA0LjYzMmEzLjc4IDMuNzggMCAwIDEgLjEyMi0yLjE3M0MuNDggMS43NjIuOTMyIDEuMTU3IDEuNTI2LjcyUzIuODI5LjAzMyAzLjU2NC4wMDNjLjk4My0uMDQxIDEuOTQxLjMxNCAyLjY2Ni45ODVhMy43NiAzLjc2IDAgMCAxIDEuMTk4IDIuNTk2aDB6IiBpZD0iSyIvPjxwYXRoIGQ9Ik0yLjI3NSA0LjM5NmMtLjQzMS4wMTktLjg1OC0uMDkyLTEuMjI3LS4zMThzLS42NjMtLjU1Ny0uODQ1LS45NTItLjI0NC0uODM1LS4xNzgtMS4yNjUuMjU3LS44MzEuNTQ5LTEuMTUxLjY3Mi0uNTQ2IDEuMDkxLS42NDkuODU5LS4wNzggMS4yNjUuMDcyLjc1Ny40MTcgMS4wMTEuNzY5YTIuMjEgMi4yMSAwIDAgMS0uMTU2IDIuNzg0Yy0uMzkxLjQyOS0uOTM0LjY4NC0xLjUxMS43MDloMHoiIGlkPSJMIi8+PC9kZWZzPjwvc3ZnPg==;" parent="1" vertex="1">
          <mxGeometry x="447.93" y="1040" width="150.4" height="40" as="geometry" />
        </mxCell>
      </root>
    </mxGraphModel>
  </diagram>
</mxfile>
